<?xml version="1.0" encoding="iso-8859-1"?>
<!-- Generator: Adobe Illustrator 19.0.0, SVG Export Plug-In . SVG Version: 6.00 Build 0)  -->
<svg version="1.1" id="Layer_1" xmlns="http://www.w3.org/2000/svg" xmlns:xlink="http://www.w3.org/1999/xlink" x="0px" y="0px"
	 viewBox="0 0 508 508" style="enable-background:new 0 0 508 508;" xml:space="preserve">
<circle style="fill:#90DFAA;" cx="254" cy="254" r="254"/>
<path style="fill:#2C9984;" d="M72.4,431.6c46,47.2,110.4,76.4,181.6,76.4s135.6-29.2,181.6-76.4H72.4z"/>
<g>
	<path style="fill:#FFFFFF;" d="M194.4,101.6c0,0,0.8,23.6-32,25.6c-7.2,0.4-40.8,3.2-34.4,38.8c0,0,5.2-24,37.2-24
		C171.6,142,210.8,139.2,194.4,101.6z"/>
	<path style="fill:#FFFFFF;" d="M304.8,101.6c0,0,0.8,23.6-32,25.6c-7.2,0.4-40.8,3.2-34.4,38.8c0,0,5.2-24,37.2-24
		C282,142,320.8,139.2,304.8,101.6z"/>
	<path style="fill:#FFFFFF;" d="M414.8,101.6c0,0,0.8,23.6-32,25.6c-7.2,0.4-40.8,3.2-34.4,38.8c0,0,5.2-24,37.2-24
		C392,142,431.2,139.2,414.8,101.6z"/>
	<rect x="89.2" y="270.4" style="fill:#FFFFFF;" width="303.6" height="161.2"/>
</g>
<rect x="89.2" y="417.2" style="fill:#CED5E0;" width="303.6" height="14.4"/>
<g>
	<rect x="102.8" y="284.8" style="fill:#84DBFF;" width="36.8" height="25.2"/>
	<rect x="162.8" y="284.8" style="fill:#84DBFF;" width="36.8" height="25.2"/>
	<rect x="222.4" y="284.8" style="fill:#84DBFF;" width="36.8" height="25.2"/>
	<rect x="282.4" y="284.8" style="fill:#84DBFF;" width="36.8" height="25.2"/>
	<rect x="342" y="284.8" style="fill:#84DBFF;" width="36.8" height="25.2"/>
	<rect x="102.8" y="321.6" style="fill:#84DBFF;" width="36.8" height="25.2"/>
	<rect x="162.8" y="321.6" style="fill:#84DBFF;" width="36.8" height="25.2"/>
	<rect x="222.4" y="321.6" style="fill:#84DBFF;" width="36.8" height="25.2"/>
	<rect x="282.4" y="321.6" style="fill:#84DBFF;" width="36.8" height="25.2"/>
	<rect x="342" y="321.6" style="fill:#84DBFF;" width="36.8" height="25.2"/>
</g>
<g>
	<polygon style="fill:#E6E9EE;" points="162.8,270.4 108,270.4 116.4,177.2 154.4,177.2 	"/>
	<polygon style="fill:#E6E9EE;" points="268.4,270.4 213.6,270.4 221.6,177.2 260,177.2 	"/>
	<polygon style="fill:#E6E9EE;" points="374,270.4 319.2,270.4 327.2,177.2 365.6,177.2 	"/>
</g>
<rect x="222.8" y="376.4" style="fill:#324A5E;" width="36" height="40.4"/>
<polygon style="fill:#E6E9EE;" points="278.8,431.6 203.2,431.6 222.8,417.2 259.2,417.2 "/>
<g>
</g>
<g>
</g>
<g>
</g>
<g>
</g>
<g>
</g>
<g>
</g>
<g>
</g>
<g>
</g>
<g>
</g>
<g>
</g>
<g>
</g>
<g>
</g>
<g>
</g>
<g>
</g>
<g>
</g>
</svg>
