<?xml version="1.0" encoding="UTF-8" standalone="no"?>
<svg id="svg2" xmlns:rdf="http://www.w3.org/1999/02/22-rdf-syntax-ns#" xmlns="http://www.w3.org/2000/svg" height="430" width="430" version="1.1" xmlns:cc="http://creativecommons.org/ns#" xmlns:xlink="http://www.w3.org/1999/xlink" xmlns:dc="http://purl.org/dc/elements/1.1/">
 <defs id="defs4">
  <linearGradient id="linearGradient4078" y2="104.05" gradientUnits="userSpaceOnUse" x2="239.8" gradientTransform="translate(9.8817e-8 622.36)" y1="99.814" x1="242.48">
   <stop id="stop4074" stop-color="#898989" offset="0"/>
   <stop id="stop4076" stop-color="#626464" stop-opacity="0" offset="1"/>
  </linearGradient>
  <linearGradient id="linearGradient4086" y2="85.886" gradientUnits="userSpaceOnUse" x2="234.75" gradientTransform="matrix(.69643 0 -.070575 .95993 82.175 48.222)" y1="85.285" x1="237.58">
   <stop id="stop4082" stop-color="#898989" offset="0"/>
   <stop id="stop4084" stop-color="#626464" stop-opacity="0" offset="1"/>
  </linearGradient>
  <filter id="filter4384" color-interpolation-filters="sRGB">
   <feFlood id="feFlood4386" result="flood" flood-color="rgb(0,0,0)" flood-opacity=".97"/>
   <feComposite id="feComposite4388" operator="in" result="composite1" in2="SourceGraphic" in="flood"/>
   <feGaussianBlur id="feGaussianBlur4390" stdDeviation="0.5" result="blur"/>
   <feOffset id="feOffset4392" result="offset" dx="1.15741e-014" dy="0.5"/>
   <feComposite id="feComposite4394" operator="over" result="composite2" in2="offset" in="SourceGraphic"/>
  </filter>
  <filter id="filter4396" color-interpolation-filters="sRGB">
   <feFlood id="feFlood4398" result="flood" flood-color="rgb(0,0,0)" flood-opacity=".97"/>
   <feComposite id="feComposite4400" operator="in" result="composite1" in2="SourceGraphic" in="flood"/>
   <feGaussianBlur id="feGaussianBlur4402" stdDeviation="0.5" result="blur"/>
   <feOffset id="feOffset4404" result="offset" dx="1.15741e-014" dy="0.5"/>
   <feComposite id="feComposite4406" operator="over" result="composite2" in2="offset" in="SourceGraphic"/>
  </filter>
  <filter id="filter4651" height="1.26" width="1.26" color-interpolation-filters="sRGB" y="-0.15" x="-0.15">
   <feGaussianBlur id="feGaussianBlur4653" stdDeviation="1" result="result1"/>
   <feTurbulence id="feTurbulence4655" baseFrequency="0.1" seed="0" result="result2" numOctaves="1" type="fractalNoise"/>
   <feDisplacementMap id="feDisplacementMap4657" scale="5" yChannelSelector="G" in2="result2" result="result3" xChannelSelector="R" in="result1"/>
   <feComposite id="feComposite4659" operator="atop" in2="result3"/>
  </filter>
 </defs>
 <g id="layer1" transform="translate(0 -622.36)">
  <path id="path3105" d="m261.4 941.73 62.115 13.7 14.908 16.584s2.4846 6.4893 15.405 6.4893c4.351 0 10.455 4.3405 13.914 6.8498 3.3406 2.4236 6.5307 8.5921 10.435 11.897 4.9372 4.1789 9.9134 10.446 14.908 12.257 7.8423 7.3512 17.565 17.021 24.846 22.712l-372.19-1.442-0.49692-135.55 40.748 2.1631 41.244 24.515 23.355 19.107" fill="#fff"/>
  <path id="path3818" d="m181.42 729.19-20.57 206.53c21.534-0.90176 71.496 0.58923 95.044-0.0832l-24.25-207.12c-16.649-1.0511-33.259-1.1854-50.221 0.66902z" fill="#eadfc8"/>
  <path id="path2996" style="block-progression:tb;text-indent:0;color:#000000;text-transform:none" d="m175.5 971.97c-5.2508-6.2-7.1364-12.046-9.2757-14.607-7.7014-9.3122-7.9567-10.537-12.663-16.745-9.893-10.119-13.548-11.857-22.12-17.815-6.807-6.3235-10.475-7.2055-16.198-13.068-5.0676-2.9015-8.7598-3.2271-14.949-8.9023-6.6657-2.864-2.0705-3.5524-13.933-5.5916-9.9737 0.38497-22.117-2.7079-26.087-2.4545l-14.26 0.72845c-0.98818 2.5084-0.5307-4.7159-0.477 1.9708 13.837-0.0572 16.805 0.22831 25.625 2.1415 9.5692 2.0757 17.301 1.1551 20.177 2.7602 3.2624 2.0468 18.117 10.177 23.774 14.958 11.219 8.3109 24.197 16.412 30.533 21.506 8.2645 7.7708 16.644 24.059 24.963 35.706"/>
  <path id="path2998" style="block-progression:tb;text-indent:0;color:#000000;text-transform:none" d="m340.35 972.04c-4.8947-6.4768-11.405-13.958-15.761-17.037-11.384-3.7881-21.043-5.7756-30.362-8.3807-13.848-3.9567-18.707-3.9915-24.758-6.1864-15.724-1.2992-38.836-1.2327-62.598-1.131-23.762 0.10177-29.091 0.42487-36.723 0.51869-0.20542 0.8097-0.92618 1.4651 1.1675 2.0654 0 0 25.714 0.0297 43.108 0.1753 17.394 0.14557 36.959 0.42324 46.792 0.0941 16.337 1.5364 41.208 11.837 57.039 14.631 11.234 4.3366 16.152 16.176 19.394 16.176"/>
  <path id="path3002" style="block-progression:tb;text-indent:0;color:#000000;text-transform:none" d="m99.768 995.14-23.242-8.3849-30.271-8.6038c-0.60196 1.838 0.14004 1.3009-0.34497 2.7375 5.5768 2.2419 11.049 2.7013 21.12 6.5502l20.657 6.8235 24.498 8.7364s15.947 6.6294 25.326 13.214l10.992 6.8055c2.8882-0.022 4.366-0.224 6.2181-0.343l-19.052-12.133c-5.7384-2.1338-10.352-5.7923-20.242-10.077z"/>
  <path id="path3008-1" style="block-progression:tb;text-indent:0;color:#000000;text-transform:none" d="m206.4 785.32c-24.564-0.1943-37.43 2.7788-39.433 3.2915-1.8411 3.0686-2.068 4.3999-0.92793 7.7636-2.895 0.86258 17.578-3.9424 40.266-3.7629 20.394 0.16132 40.872 2.5317 40.872 2.5317 1.0928-2.8347 1.2524-4.8055-0.26828-7.752-3.3294-0.71523-19.09-1.9025-40.508-2.0719z" stroke="#000" stroke-width="1.5" fill="#fff"/>
  <path id="path3008" stroke-linejoin="round" d="m98.47 820.02s11.126-3.807 27.618-3.6276c14.593 0.15873 28.034 2.2026 28.034 2.2026" transform="matrix(1.4359 0 0 1.0417 25.36 -57.213)" filter="url(#filter4396)" stroke="#000002" stroke-linecap="round" stroke-width=".81764" fill="none"/>
  <path id="path3008-1-7" style="block-progression:tb;text-indent:0;color:#000000;text-transform:none" d="m210.1 738.7c-22.78-0.19217-34.941 1.7704-37.57 2.4856-1.1261 2.9071-1.5726 4.5127-0.44339 7.5516 0 0 16.396-2.6883 37.923-2.5067 19.349 0.16321 27.993 0.91199 30.786 0.91199 0.71959-1.858 0.26037-3.8034-0.68497-6.9561 0 0-10.154-1.319-30.011-1.4865z" stroke="#000" stroke-width="1.5" fill="#fff"/>
  <path id="path3008-4" stroke-linejoin="round" d="m102.76 774.68s9.9638-3.1253 24.857-2.9459c13.179 0.15873 22.154 1.1843 22.154 1.1843" transform="matrix(1.4359 0 0 1.0417 25.36 -57.213)" filter="url(#filter4384)" stroke="#000002" stroke-linecap="round" stroke-width=".81764" fill="none"/>
  <path id="path4004" d="m227.92 706.37 0.32763 7.1865c-13.575-0.74217-27.135-0.92827-42.246 0.36745l0.15119-7.5311c15.072-1.303 29.387-0.97235 41.767-0.0229z" fill="#4758ae"/>
  <path id="path3896" d="m193.38 656.32c3.3381-3.2344 5.9593-6.0923 6.2437-10.728 0.26497-4.3194 2.5722-8.4185 7.3938-8.4635 5.7314-0.0535 8.0388 4.1963 8.2154 8.1059 0.28845 6.385 2.5302 8.5978 4.7649 10.848 7.1719 7.2203 28.103 17.438 16.924 15.139-23.316-4.7946-34.397-5.4534-61.615 0-11.797 2.3636 13.09-10.072 18.074-14.901z" fill="#484848"/>
  <path id="path3008-4-0-9" style="block-progression:tb;text-indent:0;color:#000000;text-transform:none" d="m206.85 714.6c-13.637 0.11758-18.47 0.79426-28.321 1.6451-1.5273 4.6864-2.4483 6.8957 0.38937 11.434 9.667-0.83492 14.664-1.2322 27.96-1.3468 15.372-0.13254 19.755 0.58019 29.959 1.5896 2.0144-5.2675 1.7044-7.0249 0.40799-11.595-10.244-1.0134-14.837-1.8618-30.395-1.7277z" fill="#484848"/>
  <path id="path3008-4-0-9-4" style="block-progression:tb;text-indent:0;color:#000000;text-transform:none" d="m207.68 696.87c-14.105-0.0226-19.9 0.78165-27.636 1.8021-0.57386 3.1469-1.1098 4.4472 1.0978 6.8248 7.6002-1.0025 12.703-1.3568 26.538-1.3347 13.456 0.0216 17.201 0.42457 25.026 1.1987 2.4432-2.3967 2.2342-4.3706 0.46158-7.0585-7.5113-0.7431-11.622-1.4102-25.487-1.4324z" fill="#484848"/>
  <path id="path3008-4-0-9-4-8" stroke-linejoin="round" d="m179.32 693.68s10.207-2.5826 29.057-2.3958c16.68 0.16536 26.007 2.3528 26.007 2.3528" stroke="#484848" stroke-linecap="round" stroke-width="1.5" fill="none"/>
  <path id="path3980" stroke-linejoin="round" d="m181.05 693.51v7.7483" stroke="#484848" stroke-linecap="round" stroke-width="1.5" fill="none"/>
  <path id="path3982" stroke-linejoin="round" d="m186.1 692.66 0.0481 7.888" stroke="#484848" stroke-linecap="round" stroke-width="1.5" fill="none"/>
  <path id="path3984" stroke-linejoin="round" d="m191.4 691.85 0.32862 8.3443" stroke="#484848" stroke-linecap="round" stroke-width="1.5" fill="none"/>
  <path id="path3986" stroke-linejoin="round" d="m197.16 691.67 0.32862 7.6845" stroke="#484848" stroke-linecap="round" stroke-width="1.5" fill="none"/>
  <path id="path3988" stroke-linejoin="round" d="m204.06 691.31 0.16432 8.1613" stroke="#484848" stroke-linecap="round" stroke-width="1.5" fill="none"/>
  <path id="path3990" stroke-linejoin="round" d="m210.96 691.4-0.1643 8.1962" stroke="#484848" stroke-linecap="round" stroke-width="1.5" fill="none"/>
  <path id="path3992" stroke-linejoin="round" d="m217.69 691.89-0.16431 7.5857" stroke="#484848" stroke-linecap="round" stroke-width="1.5" fill="none"/>
  <path id="path3994" stroke-linejoin="round" d="m223.89 692.15-0.11617 7.3269" stroke="#484848" stroke-linecap="round" stroke-width="1.5" fill="none"/>
  <path id="path3996" stroke-linejoin="round" d="m233.14 693.63v6.9139" stroke="#484848" stroke-linecap="round" fill="none"/>
  <path id="path4006" d="m120.44 820.2 2.7463 71.404 6.5957 56.45-30.722 0.27002 3.8762-80.364 4.1989-46.014z" fill-opacity=".48148" transform="matrix(1.4359 0 0 1.0417 25.36 -57.213)" filter="url(#filter4651)" fill="#b5b5b5"/>
  <path id="path4022" d="m107.89 774.83-2.7511 33.822 15.859-2.2656-2.5892-33.336c-3.8044 0.53178-7.6119 0.48399-10.519 1.7801z" fill-opacity=".48148" transform="matrix(1.4359 0 0 1.0417 25.36 -57.213)" filter="url(#filter4651)" fill="#b5b5b5"/>
  <path id="path4036" d="m238.41 85.285c0 1.6115-0.69163 2.9179-1.5448 2.9179-0.85316 0-1.5448-1.3064-1.5448-2.9179s0.69163-2.9179 1.5448-2.9179c0.85082 0 1.5415 1.2995 1.5448 2.9066" fill-rule="evenodd" transform="matrix(1.6036 0 .42950 1.4462 -206.39 519.49)" fill="url(#linearGradient4086)"/>
  <path id="path4048" d="m211.87 654.05c3.6279-0.58823 5.892 1.9588 7.9631 4.059 3.1882 3.0074 7.6332 5.1892 11.337 7.8675 1.4541 1.0514 2.7207 1.6271 3.2264 3.4714-4.3419 0.1665-7.8956-1.0301-12.315-2.9681-4.3011-1.8862-8.0596-4.8072-11.241-8.2191-1.5557-1.6685-0.79804-3.7592 1.0291-4.2106z" fill="url(#linearGradient4078)"/>
  <path id="path4088" d="m212.07 827.67-0.13817 13.143 9.6411-0.0988-0.1643-13.212z"/>
  <path id="path4621" d="m217.03 168.58-0.94266 8.0783 10.365-0.057c-0.062-0.41384 0.8949-3.3448 1.0299-3.5473l-1.3732-4.1194c-2.9339-0.47545-4.3986-0.40738-8.2389-0.34328-0.58895 0.01-0.79202 0.18195-0.84032-0.0113z" fill-opacity=".48148" transform="matrix(1.2434 -.11534 .14057 .79761 -112.37 621.48)" filter="url(#filter4651)" fill="#b5b5b5"/>
  <path id="path4528" d="m183.3 730.78c0.21531 1.2952 0.17255 1.9054 0.17255 3.1547l6.0711-0.25288 0.0599-3.3377z"/>
  <path id="path4528-8" d="m197.35 729.8c0.21531 1.2952 0.17257 2.2425 0.17257 3.4919l6.1873-0.16859-0.0563-3.422z"/>
  <path id="path4528-2" d="m209.66 729.63c0.21531 1.2952 0.28875 2.2425 0.28875 3.4919l5.955-0.0843-0.0563-3.5063z"/>
  <path id="path4528-4" d="m222.33 729.63c0.21529 1.2952 0.28875 2.2425 0.28875 3.4919l6.1873 0.16859 0.0599-3.2534z"/>
  <path id="path4566" d="m228.7 692.32v7.7483" stroke="#484848" stroke-width="1.5" fill="none"/>
  <path id="path4599" d="m117.57 699.18 0.47511 16.546h17.579v-16.546z" transform="matrix(1.4359 0 0 1.0417 25.36 -57.213)" filter="url(#filter4651)" fill="#fefb51"/>
  <path id="path4769" d="m108.8 997.57 16.041 4.6147 8.219 26.732 15.965 9.3411-18.415-2.4834-14.099-2.8215-21.661 3.0065-25.088-23.158 19.718-9.6676zm-47.229 6.3046-46.316-21.406c-1.5493-29.459-0.94747-32.68-0.21631-63.078 14.59 1.59 20.434 4.8057 31.07 7.6821l14.477 16.782 21.589 17.362 12.408 27.083c-7.1558 2.1602-11.578 1.779-19.004 6.7745z" transform="matrix(1.4359 0 0 1.0417 25.36 -57.213)" filter="url(#filter4651)" fill="#f2f2f2"/>
  <path id="path4773" d="m19.189 932.55 23.961 1.4503s14.466 22.155 14.736 29.716c-8.3709 2.7003-14.688 0.36489-24.679 12.246l-11.049-13.99z" fill-opacity=".91244" transform="matrix(1.4359 0 0 1.0417 25.36 -57.213)" filter="url(#filter4651)" fill="#e4e4e4"/>
  <path id="path4773-4" d="m75.827 1011.6 36.365-6.6742 14.554 23.507-29.354-3.2353-12.175-9.1195z" fill-opacity=".91244" transform="matrix(1.4359 0 0 1.0417 25.36 -57.213)" filter="url(#filter4651)" fill="#e4e4e4"/>
  <path id="path4769-9" d="m99.882 965.49 59.891 0.59597 42.628 12.297s6.6272 7.8777 8.855 12.198c-9.4811 2.0163-12.543 4.9764-19.474 8.2394-15.517 10.317-29.409 20.6-35.331 26.276l-15.459-4.8247-8.6148-28.944-21.611-7.2572z" transform="matrix(1.4359 0 0 1.0417 25.36 -57.213)" filter="url(#filter4651)" fill="#f2f2f2"/>
  <path id="path4773-46" d="m151.97 984.3 17.509-7.2992 17.854 13.523c-12.647 2.1332-24.741 6.0503-31.49 22.97l-10.167-1.0356z" fill-opacity=".91244" transform="matrix(1.4359 0 0 1.0417 25.36 -57.213)" filter="url(#filter4651)" fill="#e4e4e4"/>
  <path id="path4769-9-1" d="m194.35 1009.6 34.35-12.087 17.808 21.605c7.1585 7.3603 11.658 16.135 15.287 22.7-5.4874-0.2127-20.031-5.0558-31.273-4.9434s-19.182 5.1803-27.428 5.2744l-18.488-5.61-19.336-1.8775z" transform="matrix(1.4359 0 0 1.0417 25.36 -57.213)" filter="url(#filter4651)" fill="#f2f2f2"/>
  <path id="path4773-0" d="m183.33 1026.1 42.661-19.04 20.399 25.033-20.877-5.144-28.48 8.4155z" fill-opacity=".91244" transform="matrix(1.4359 0 0 1.0417 25.36 -57.213)" filter="url(#filter4651)" fill="#e4e4e4"/>
  <path id="path4769-9-3" d="m14.805 1008c20.539 4.6312 27.805 5.546 45.302 15.974l19.506 14.312c-8.3518-0.1859-10.584-0.9747-18.309-0.9607-17.066 0-18.778-0.086-26.955-0.7948l-18.612 1.3123c-0.18188-11.698 0.12723-17.379-0.93179-29.844z" transform="matrix(1.4359 0 0 1.0417 25.36 -57.213)" filter="url(#filter4651)" fill="#f2f2f2"/>
  <path id="path4773-6" d="m20.773 1015.7 34.047 9.8349-3.4784 7.0233-12.618 0.8205-15.826-1.2526z" fill-opacity=".91244" transform="matrix(1.4359 0 0 1.0417 25.36 -57.213)" filter="url(#filter4651)" fill="#e4e4e4"/>
  <path id="path4897" stroke-linejoin="round" d="m216.84 931.77s0.33302-13.039 0-24.833c7.7014-8.6914 11.98-8.6914 22.248-0.62081l0.64178 25.143z" stroke="#000" stroke-width="1.5" fill="#fff"/>
  <path id="path4899" d="m217.25 931.43 0.0887-24.765c5.5925-5.9198 8.6635-9.203 19.274 0.84029l0.7671 23.705z"/>
  <path id="path4901" d="m154.02 55.381c0 1.5127-1.2735 2.7391-2.8444 2.7391s-2.8444-1.2263-2.8444-2.7391c0-1.5127 1.2735-2.7391 2.8444-2.7391s2.8444 1.2263 2.8444 2.7391z" stroke-opacity=".34562" fill-opacity=".35023" transform="matrix(1.4359 0 0 1.0417 -10.273 621.75)" stroke="#000" stroke-width="1.2265" fill="#f00"/>
  <path id="path3876" style="block-progression:tb;text-indent:0;color:#000000;text-transform:none" d="m349.72 975.01-24.304 6.0351s-12.063 3.1662-22.634 7.0881c-11.892 5.0616-20.371 9.5867-27.936 14.574-7.8294 5.1617-15.718 9.8648-22.53 14.096l2.8781 0.8276 25.175-14.954 17.581-9.6926c8.6269-2.8165 20.479-7.7864 30.292-10.015 9.8132-2.2288 8.8528-2.47 18.447-4.6635 6.1688-0.0995 12.088 2.9026 12.088 2.9026l14.637 11.37s7.921 7.9614 17.385 15.891c12.056 9.5809 16.533 14.007 25.053 21.966 3.1138 0.8158 4.811 1.0136 3.7255-0.4197l-31.306-28.767s-27.385-22.424-29.275-23.866c-2.4675-0.29837-9.2755-2.3728-9.2755-2.3728z"/>
  <path id="path3900" style="block-progression:tb;text-indent:0;color:#000000;text-transform:none" d="m247.54 1017.7s-15.016-3.3657-20.648-5.4078c-5.1082-2.9314-8.7185-12.249-12.491-21.958-0.77182-3.7967-2.2402-8.8598-4.5449-9.9944-6.0853-0.12121-24.289-4.8016-28.845-5.1785l-9.952 1.03-22.31 5.2183c4.6379-1.4068-20.466 6.7609-15.441 4.9327l-20.832 9.0599 2.9214 1.4968 20.727-8.5838 26.217-6.6106 14.22-3.1502 6.9789-0.49392s20.48 4.96 24.866 5.0376c1.7604 2.3464 2.3763 10.141 7.0514 21.011 2.2777 4.2579 4.6464 8.2038 6.0509 8.6553 7.3208 4.4614 13.681 4.654 22.655 6.6527 3.5684 0.01 4.3117 2.8749 5.8948 2.5615l1.6421-1.0419z"/>
  <path id="path3108" style="color:#000000" d="m229.11 50.274 0.36425 16.573" transform="translate(0 622.36)" stroke="#000" stroke-linecap="round" stroke-width="2.5" fill="none"/>
  <path id="path3880" style="color:#000000" d="m184.85 50.092 0.18213 16.027" transform="translate(0 622.36)" stroke="#000" stroke-linecap="round" stroke-width="2.5" fill="none"/>
  <path id="path3884" style="color:#000000" d="m181.39 85.424-0.36425 6.1922" transform="translate(0 622.36)" stroke="#000" stroke-linecap="round" stroke-width="2.5" fill="none"/>
  <path id="path3886" style="color:#000000" d="m232.75 85.242 0.40843 5.6458" transform="translate(0 622.36)" stroke="#000" stroke-linecap="round" stroke-width="2.5" fill="none"/>
  <path id="path3888" style="color:#000000" d="m178.48 107.46-1.0927 7.6492" transform="translate(0 622.36)" stroke="#000" stroke-linecap="round" stroke-width="2.5" fill="none"/>
  <path id="path3890" style="color:#000000" d="m234.94 107.82 0.72849 6.7385" transform="translate(0 622.36)" stroke="#000" stroke-linecap="round" stroke-width="2.5" fill="none"/>
  <path id="path3892" style="color:#000000" d="m175.03 130.66-3.7567 31.222" transform="translate(0 622.36)" stroke="#000" stroke-linecap="round" stroke-width="2.5" fill="none"/>
  <path id="path3894" style="color:#000000" d="m238.09 129.05 3.7567 31.542" transform="translate(0 622.36)" stroke="#000" stroke-linecap="round" stroke-width="2.5" fill="none"/>
  <path id="path3897" style="color:#000000" d="m169.91 177.52-13.83 134.77" transform="translate(0 622.36)" stroke="#000" stroke-linecap="round" stroke-width="2.5" fill="none"/>
  <path id="path3901" style="color:#000000" d="m243.65 176.44 16.484 135.34" transform="translate(0 622.36)" stroke="#000" stroke-linecap="round" stroke-width="2.5" fill="none"/>
 </g>
</svg>
