<svg id="Icons" height="24" viewBox="0 0 74 74" width="24" xmlns="http://www.w3.org/2000/svg"><path d="m71 29a1 1 0 0 1 -1-1v-15h-15a1 1 0 0 1 0-2h16a1 1 0 0 1 1 1v16a1 1 0 0 1 -1 1z"/><path d="m3 29a1 1 0 0 1 -1-1v-16a1 1 0 0 1 1-1h16a1 1 0 0 1 0 2h-15v15a1 1 0 0 1 -1 1z"/><path d="m71 63h-16a1 1 0 0 1 0-2h15v-15a1 1 0 0 1 2 0v16a1 1 0 0 1 -1 1z"/><path d="m19 63h-16a1 1 0 0 1 -1-1v-16a1 1 0 0 1 2 0v15h15a1 1 0 0 1 0 2z"/><path d="m59 52a1 1 0 0 1 -1-1v-28a1 1 0 0 1 2 0v28a1 1 0 0 1 -1 1z"/><path d="m50.2 47a1 1 0 0 1 -1-1v-23a1 1 0 0 1 2 0v23a1 1 0 0 1 -1 1z"/><path d="m41.4 47a1 1 0 0 1 -1-1v-23a1 1 0 0 1 2 0v23a1 1 0 0 1 -1 1z"/><path d="m32.6 47a1 1 0 0 1 -1-1v-23a1 1 0 1 1 2 0v23a1 1 0 0 1 -1 1z"/><path d="m23.8 47a1 1 0 0 1 -1-1v-23a1 1 0 0 1 2 0v23a1 1 0 0 1 -1 1z"/><path d="m15 52a1 1 0 0 1 -1-1v-28a1 1 0 0 1 2 0v28a1 1 0 0 1 -1 1z"/></svg>