<?xml version="1.0" encoding="iso-8859-1"?>
<!-- Generator: Adobe Illustrator 19.0.0, SVG Export Plug-In . SVG Version: 6.00 Build 0)  -->
<svg version="1.1" id="Layer_1" xmlns="http://www.w3.org/2000/svg" xmlns:xlink="http://www.w3.org/1999/xlink" x="0px" y="0px"
	 viewBox="0 0 512 512" style="enable-background:new 0 0 512 512;" xml:space="preserve">
<circle style="fill:#7FC8F1;" cx="256" cy="256" r="256"/>
<path style="fill:#00ACEA;" d="M511.516,271.556L255.998,15.542l-36.405,39.417l0,0l0,0v49.833h-31.757v29.687l15.021,14.089
	l-25.965,290.647h-25.41v38.577l19.858,19.858C197.843,506.935,226.328,512,256,512C392.16,512,503.473,405.695,511.516,271.556z"/>
<polygon style="fill:#FF4F19;" points="292.402,54.958 255.998,15.542 219.593,54.958 219.593,60.667 292.402,60.667 "/>
<polygon style="fill:#FF3200;" points="292.398,54.96 292.398,60.67 255.998,60.67 255.998,15.54 "/>
<rect x="219.59" y="54.958" style="fill:#FFFFFF;" width="72.809" height="50.843"/>
<rect x="256" y="54.96" style="fill:#D9D9DB;" width="36.4" height="50.84"/>
<polygon style="fill:#FF4F19;" points="307.659,132.012 204.336,132.012 176.217,446.776 335.779,446.776 "/>
<polygon style="fill:#FF3200;" points="335.778,446.78 253.908,446.78 255.998,444.69 255.998,132.01 307.658,132.01 
	311.138,170.92 313.978,202.8 318.678,255.33 321.528,287.21 326.218,339.75 329.068,371.62 "/>
<polygon style="fill:#FFFFFF;" points="292.807,132.011 195.657,229.161 199.057,191.042 258.088,132.011 "/>
<polygon style="fill:#D9D9DB;" points="292.808,132.01 255.998,168.82 255.998,134.1 258.088,132.01 "/>
<polygon style="fill:#FFFFFF;" points="313.988,202.785 186.632,330.142 190.041,292.014 311.135,170.919 "/>
<polygon style="fill:#D9D9DB;" points="313.988,202.79 313.978,202.8 255.998,260.78 255.998,226.06 311.138,170.92 "/>
<polygon style="fill:#FFFFFF;" points="321.524,287.205 177.616,431.114 181.025,392.986 318.68,255.33 "/>
<polygon style="fill:#D9D9DB;" points="321.528,287.21 255.998,352.74 255.998,318.01 318.678,255.33 "/>
<polygon style="fill:#FFFFFF;" points="329.069,371.616 253.907,446.778 219.189,446.778 326.216,339.75 "/>
<polygon style="fill:#D9D9DB;" points="329.068,371.62 255.998,444.69 255.998,409.97 326.218,339.75 "/>
<rect x="151.48" y="439.21" style="fill:#E1E1E3;" width="209.03" height="38.577"/>
<rect x="256" y="439.22" style="fill:#AEADB3;" width="104.52" height="38.57"/>
<rect x="187.84" y="104.79" style="fill:#E1E1E3;" width="136.32" height="29.687"/>
<path style="fill:#FFFFFF;" d="M279.027,231.321c0-12.666-10.363-23.029-23.029-23.029c-12.666,0-23.029,10.363-23.029,23.029
	v31.471h46.059v-31.471H279.027z"/>
<path style="fill:#D9D9DB;" d="M279.028,231.32v31.47h-23.03v-54.5C268.668,208.29,279.028,218.65,279.028,231.32z"/>
<path style="fill:#3C3B41;" d="M272.478,232.522c0-9.064-7.416-16.48-16.48-16.48c-9.064,0-16.48,7.416-16.48,16.48v22.52h32.96
	V232.522z"/>
<path style="fill:#171719;" d="M272.478,232.52v22.52h-16.48v-39C265.058,216.04,272.478,223.46,272.478,232.52z"/>
<path style="fill:#3C3B41;" d="M267.728,78.23c0-6.452-5.279-11.73-11.73-11.73c-6.452,0-11.73,5.279-11.73,11.73v16.03h23.46V78.23
	z"/>
<path style="fill:#171719;" d="M267.728,78.23v16.03h-11.73V66.5C262.448,66.5,267.728,71.78,267.728,78.23z"/>
<polygon style="fill:#FFA7B8;" points="255.998,444.69 255.998,446.78 253.908,446.78 "/>
<rect x="256" y="104.79" style="fill:#AEADB3;" width="68.16" height="29.69"/>
<g>
</g>
<g>
</g>
<g>
</g>
<g>
</g>
<g>
</g>
<g>
</g>
<g>
</g>
<g>
</g>
<g>
</g>
<g>
</g>
<g>
</g>
<g>
</g>
<g>
</g>
<g>
</g>
<g>
</g>
</svg>
