<?xml version="1.0" encoding="iso-8859-1"?>
<!-- Generator: Adobe Illustrator 19.0.0, SVG Export Plug-In . SVG Version: 6.00 Build 0)  -->
<svg version="1.1" id="Layer_1" xmlns="http://www.w3.org/2000/svg" xmlns:xlink="http://www.w3.org/1999/xlink" x="0px" y="0px"
	 viewBox="0 0 512 512" style="enable-background:new 0 0 512 512;" xml:space="preserve">
<g>
	<circle style="fill:#88C5CC;" cx="256" cy="256" r="256"/>
	<circle style="fill:#88C5CC;" cx="256" cy="256" r="256"/>
</g>
<g>
	<path style="opacity:0.2;fill:#F5F5F5;enable-background:new    ;" d="M0,256c0,6.228,0.3,12.372,0.744,18.488L288,164v-52
		L89.968,61.224C34.936,108.176,0,177.992,0,256z"/>
	<path style="opacity:0.2;fill:#F5F5F5;enable-background:new    ;" d="M454.2,94L384,112v52l124.104,47.736
		C500.408,167.572,481.44,127.288,454.2,94z"/>
</g>
<path style="fill:#2179A6;" d="M256,512c56.068,0,107.888-18.08,150.056-48.648C393.448,460.628,384,449.42,384,436
	c0-2.212-1.788-4-4-4s-4,1.788-4,4c0,15.464-12.536,28-28,28s-28-12.536-28-28c0-2.212-1.788-4-4-4s-4,1.788-4,4
	c0,15.464-12.536,28-28,28s-28-12.536-28-28c0-2.212-1.788-4-4-4s-4,1.788-4,4c0,15.464-12.536,28-28,28s-28-12.536-28-28
	c0-2.212-1.788-4-4-4s-4,1.788-4,4c0,15.464-12.536,28-28,28s-28-12.536-28-28c0-2.212-1.788-4-4-4s-4,1.788-4,4
	c0,11.4-6.82,21.184-16.588,25.556C146.024,493.244,198.816,512,256,512z"/>
<polygon style="fill:#E6E6E6;" points="420,444 252,444 288,180 384,180 "/>
<rect x="288" y="112" style="fill:#FFD464;" width="96" height="52"/>
<polygon style="fill:#F5F5F5;" points="400,112 272,112 336,64 "/>
<polygon style="fill:#E6E6E6;" points="336,64 336,112 400,112 "/>
<path style="fill:#FFD464;" d="M426.272,447.1c-1.468-1.864-3.724-3.1-6.272-3.1H252c-4.4,0-8,3.6-8,8v8c0,4.4,3.6,8,8,8h147.524
	C408.912,461.632,417.828,454.628,426.272,447.1z"/>
<path style="fill:#F5F5F5;" d="M400,172c0,4.4-3.6,8-8,8H280c-4.4,0-8-3.6-8-8l0,0c0-4.4,3.6-8,8-8h112C396.4,164,400,167.6,400,172
	L400,172z"/>
<g>
	<polygon style="fill:#CC584C;" points="277.088,260 271.636,300 400.364,300 394.912,260 	"/>
	<polygon style="fill:#CC584C;" points="408,356 402.548,316 269.452,316 264,356 	"/>
	<polygon style="fill:#CC584C;" points="284.728,204 279.272,244 392.728,244 387.272,204 	"/>
</g>
<polygon style="fill:#CCCCCC;" points="384.548,184 384,180 288,180 287.452,184 "/>
<rect x="288" y="112" style="fill:#E6BF5A;" width="96" height="4"/>
<path style="fill:#2179A6;" d="M256,512c62.916,0,120.5-22.744,165.076-60.4c-0.684-2.416-1.076-4.96-1.076-7.6c0-2.212-1.788-4-4-4
	s-4,1.788-4,4c0,15.464-12.536,28-28,28s-28-12.536-28-28c0-2.212-1.788-4-4-4s-4,1.788-4,4c0,15.464-12.536,28-28,28
	s-28-12.536-28-28c0-2.212-1.788-4-4-4s-4,1.788-4,4c0,15.464-12.536,28-28,28s-28-12.536-28-28c0-2.212-1.788-4-4-4s-4,1.788-4,4
	c0,15.464-12.536,28-28,28s-28-12.536-28-28c0-2.212-1.788-4-4-4s-4,1.788-4,4c0,15.464-12.536,28-28,28s-28-12.536-28-28
	c0-2.212-1.788-4-4-4s-4,1.788-4,4c0,2.64-0.392,5.184-1.076,7.6C135.5,489.256,193.084,512,256,512z"/>
<path style="fill:#2995CC;" d="M256,512c52.476,0,101.252-15.816,141.86-42.908C394.2,464.364,392,458.444,392,452
	c0-2.212-1.788-4-4-4s-4,1.788-4,4c0,15.464-12.536,28-28,28s-28-12.536-28-28c0-2.212-1.788-4-4-4s-4,1.788-4,4
	c0,15.464-12.536,28-28,28s-28-12.536-28-28c0-2.212-1.788-4-4-4s-4,1.788-4,4c0,15.464-12.536,28-28,28s-28-12.536-28-28
	c0-2.212-1.788-4-4-4s-4,1.788-4,4c0,15.464-12.536,28-28,28s-28-12.536-28-28c0-2.212-1.788-4-4-4s-4,1.788-4,4
	c0,8.02-3.392,15.236-8.796,20.34C158.784,497.42,205.676,512,256,512z"/>
<circle style="fill:#FFE399;" cx="336" cy="138" r="16"/>
<circle style="fill:#F5F5F5;" cx="336" cy="138" r="8"/>
<g>
	<rect x="328" y="112" style="fill:#CCA950;" width="16" height="12"/>
	<rect x="328" y="152" style="fill:#CCA950;" width="16" height="12"/>
</g>
<g>
</g>
<g>
</g>
<g>
</g>
<g>
</g>
<g>
</g>
<g>
</g>
<g>
</g>
<g>
</g>
<g>
</g>
<g>
</g>
<g>
</g>
<g>
</g>
<g>
</g>
<g>
</g>
<g>
</g>
</svg>
