<svg height="48px" viewBox="0 0 512.00024 512" width="48px" xmlns="http://www.w3.org/2000/svg"><path d="m480.996094 436.996094v60h-150v-75h135c8.402344 0 15 6.601562 15 15zm0 0" fill="#ffb64c"/><path d="m510.414062 430.289062-31-60c-2.546874-5.082031-7.734374-8.292968-13.417968-8.292968h-131.996094c-8.289062 0-15 6.710937-15 15l5.992188 60c0 8.292968 6.707031 15 15 15h157.003906c5.199218 0 10.019531-2.695313 12.757812-7.117188 2.738282-4.425781 2.988282-9.945312.660156-14.589844zm0 0" fill="#ff641a"/><path d="m270.996094 15v32c0 8.402344-6.597656 15-15 15-8.398438 0-14.996094-6.597656-14.996094-15v-32c0-8.402344 6.597656-15 14.996094-15 8.402344 0 15 6.597656 15 15zm0 0" fill="#f03800"/><path d="m270.996094 15v32c0 8.402344-6.597656 15-15 15v-62c8.402344 0 15 6.597656 15 15zm0 0" fill="#cd0000"/><path d="m255.996094 32c-41.398438 0-74.996094 33.597656-74.996094 75v30c0 8.398438 6.597656 15 15 15h119.996094c8.402344 0 15-6.601562 15-15v-30c0-41.402344-33.597656-75-75-75zm0 0" fill="#ff641a"/><path d="m330.996094 107v30c0 8.398438-6.597656 15-15 15h-60v-120c41.402344 0 75 33.597656 75 75zm0 0" fill="#f03800"/><path d="m360.996094 495.496094v1.5h-209.996094v-1.5l30-299.996094c.898438-8.101562 8.097656-14.101562 16.5-13.5h116.996094c8.398437-.601562 15.601562 5.398438 16.5 13.5l22.800781 226.496094zm0 0" fill="#c5d3dd"/><path d="m360.996094 495.496094v1.5h-105v-314.996094h58.5c8.398437-.601562 15.601562 5.398438 16.5 13.5l22.800781 226.496094zm0 0" fill="#9facba"/><g fill="#714c2f"><path d="m270.996094 257c0 8.398438-6.597656 14.996094-15 14.996094-8.398438 0-14.996094-6.597656-14.996094-14.996094 0-8.402344 6.597656-15 14.996094-15 8.402344 0 15 6.597656 15 15zm0 0"/><path d="m270.996094 316.996094c0 8.402344-6.597656 15-15 15-8.398438 0-14.996094-6.597656-14.996094-15 0-8.398438 6.597656-15 14.996094-15 8.402344 0 15 6.601562 15 15zm0 0"/><path d="m270.996094 107v30c0 8.398438-6.597656 15-15 15-8.398438 0-14.996094-6.601562-14.996094-15v-30c0-8.402344 6.597656-15 14.996094-15 8.402344 0 15 6.597656 15 15zm0 0"/></g><path d="m270.996094 316.996094c0 8.402344-6.597656 15-15 15v-30c8.402344 0 15 6.601562 15 15zm0 0" fill="#523522"/><path d="m270.996094 257c0 8.398438-6.597656 14.996094-15 14.996094v-29.996094c8.402344 0 15 6.597656 15 15zm0 0" fill="#523522"/><path d="m270.996094 107v30c0 8.398438-6.597656 15-15 15v-60c8.402344 0 15 6.597656 15 15zm0 0" fill="#523522"/><path d="m300.996094 436.996094v60h-89.996094v-60c0-24.898438 20.097656-45 44.996094-45 24.902344 0 45 20.101562 45 45zm0 0" fill="#deecf1"/><path d="m360.996094 137v60c0 8.398438-6.597656 15-15 15h-179.996094c-8.402344 0-15-6.601562-15-15v-60c0-8.402344 6.597656-15 15-15h179.996094c8.402344 0 15 6.597656 15 15zm0 0" fill="#deecf1"/><path d="m300.996094 436.996094v60h-45v-105c24.902344 0 45 20.101562 45 45zm0 0" fill="#c5d3dd"/><path d="m360.996094 137v60c0 8.398438-6.597656 15-15 15h-90v-90h90c8.402344 0 15 6.597656 15 15zm0 0" fill="#c5d3dd"/><path d="m511.996094 496.996094c0 8.402344-6.597656 15-15 15h-390.996094c-8.402344 0-15-6.597656-15-15s6.597656-15 15-15h390.996094c8.402344 0 15 6.597656 15 15zm0 0" fill="#7fe881"/><path d="m511.996094 496.996094c0 8.402344-6.597656 15-15 15h-241v-30h241c8.402344 0 15 6.597656 15 15zm0 0" fill="#5bc980"/><path d="m76 152h-61c-8.292969 0-15-6.710938-15-15 0-8.292969 6.707031-15 15-15h61c8.289062 0 15 6.707031 15 15 0 8.289062-6.710938 15-15 15zm0 0" fill="#ffd396"/><path d="m496.996094 152h-61c-8.289063 0-15-6.710938-15-15 0-8.292969 6.710937-15 15-15h61c8.289062 0 15 6.707031 15 15 0 8.289062-6.710938 15-15 15zm0 0" fill="#ffb64c"/><path d="m35.160156 264.5c-4.144531-7.179688-1.683594-16.351562 5.492188-20.496094l51.957031-30c7.121094-4.160156 16.332031-1.699218 20.492187 5.496094 4.148438 7.175781 1.6875 16.347656-5.492187 20.492188l-51.957031 30c-7.152344 4.128906-16.34375 1.691406-20.492188-5.492188zm0 0" fill="#ffd396"/><path d="m398.894531 54.5c-4.148437-7.179688-1.6875-16.347656 5.492188-20.492188l51.957031-30c7.117188-4.132812 16.332031-1.6875 20.492188 5.492188 4.144531 7.179688 1.683593 16.347656-5.492188 20.492188l-51.957031 30c-7.152344 4.132812-16.347657 1.691406-20.492188-5.492188zm0 0" fill="#ffb64c"/><path d="m92.609375 59.992188-51.957031-30c-7.175782-4.144532-9.636719-13.3125-5.492188-20.492188 4.144532-7.179688 13.316406-9.625 20.492188-5.492188l51.957031 30c7.179687 4.144532 9.640625 13.3125 5.492187 20.492188-4.15625 7.195312-13.351562 9.617188-20.492187 5.492188zm0 0" fill="#ffd396"/><path d="m456.34375 269.992188-51.957031-30c-7.179688-4.148438-9.640625-13.316407-5.492188-20.492188 4.144531-7.195312 13.3125-9.65625 20.492188-5.496094l51.957031 30c7.175781 4.148438 9.636719 13.316406 5.492188 20.496094-4.15625 7.195312-13.355469 9.613281-20.492188 5.492188zm0 0" fill="#ffb64c"/></svg>
