<svg id="Layer_1" enable-background="new 0 0 512 512" height="32" viewBox="0 0 512 512" width="32" xmlns="http://www.w3.org/2000/svg"><path d="m346 242h-180l-34.667 220h249.334z" fill="#e7e9ef"/><path d="m131.333 462-5.333 40h260l-5.333-40z" fill="#c5d3de"/><path d="m151 202h210v40h-210z" fill="#c68a86"/><path d="m276 122h50v80h-50z" fill="#ffda8f"/><path d="m186 122h50v80h-50z" fill="#ffda8f"/><path d="m326 82c0-33.137-26.863-60-60-60h-20c-33.137 0-60 26.863-60 60z" fill="#ff5a58"/><g fill="#c68a86"><path d="m256 442c11.046 0 20 8.954 20 20v40h-40v-40c0-11.046 8.954-20 20-20z"/><path d="m176 82h160v40h-160z"/><path d="m236 122h40v80h-40z"/></g><path d="m145.76 370.41c.52.09 1.05.13 1.57.13 2.36 0 4.65-.84 6.46-2.38 1.83-1.54 3.04-3.7 3.41-6.07l17.35-110.09h162.9l13.42 85.16c.38 2.369 1.59 4.529 3.41 6.08 2.21 1.869 5.16 2.699 8.03 2.25 5.44-.86 9.18-5.99 8.32-11.44l-12.929-82.05h3.299c5.523 0 10-4.478 10-10v-40c0-5.522-4.477-10-10-10h-25v-60c5.523 0 10-4.478 10-10v-40c0-5.522-4.477-10-10-10h-.726c-4.868-33.876-34.072-60-69.274-60v-2c0-5.522-4.477-10-10-10s-10 4.478-10 10v2c-35.202 0-64.406 26.124-69.274 60h-.726c-5.523 0-10 4.478-10 10v25.442l-14.41-5.543c-3.04-1.17-6.5-.77-9.19 1.04-1.7 1.15-2.99 2.78-3.74 4.7-.95 2.49-.88 5.21.2 7.65 1.09 2.439 3.06 4.319 5.55 5.27l27.695 10.653c.006.002.012.004.017.007l.288.11c.058.022.116.037.174.059.203.074.407.146.617.207.129.038.259.067.389.1.167.042.333.085.503.118.191.037.383.062.575.087.121.016.239.038.361.05.321.032.645.05.971.05v20h-10c-5.51 0-10 4.49-10 10s4.49 10 10 10h10v20h-25c-5.523 0-10 4.478-10 10v40c0 5.522 4.477 10 10 10h3.298l-16.858 106.979c-.41 2.641.22 5.28 1.79 7.44 1.58 2.161 3.9 3.581 6.53 3.991zm100.24-338.41h20c24.146 0 44.349 17.206 48.996 40h-117.992c4.647-22.794 24.85-40 48.996-40zm-60 60h140v20h-50-40-50zm130 40v60h-30v-60zm-50 0v60h-20v-60zm-70 20v-20h30v60h-30v-20c5.51 0 10-4.49 10-10s-4.49-10-10-10zm-35 60h25 50 40 50 25v20h-5-180-5z"/><path d="m366.2 370.18c-2.64.42-4.96 1.84-6.53 3.99-1.57 2.16-2.21 4.81-1.79 7.439.37 2.37 1.58 4.53 3.41 6.08 1.8 1.53 4.1 2.37 6.45 2.37.52 0 1.05-.04 1.57-.12 5.45-.859 9.18-5.989 8.32-11.439-.37-2.36-1.58-4.521-3.41-6.07-2.21-1.87-5.16-2.701-8.02-2.25z"/><path d="m138.76 414.87c.52.08 1.05.12 1.57.12 2.35 0 4.65-.841 6.45-2.37 1.83-1.551 3.04-3.71 3.41-6.08.42-2.63-.22-5.28-1.79-7.44s-3.89-3.57-6.53-3.99c-2.86-.449-5.81.381-8.02 2.25-1.83 1.551-3.04 3.7-3.41 6.07-.86 5.45 2.87 10.58 8.32 11.44z"/><path d="m311 332c5.523 0 10-4.478 10-10s-4.477-10-10-10h-27c-5.523 0-10 4.478-10 10s4.477 10 10 10z"/><path d="m304 432h27c5.523 0 10-4.478 10-10s-4.477-10-10-10h-27c-5.523 0-10 4.478-10 10s4.477 10 10 10z"/><path d="m194 392c-5.523 0-10 4.478-10 10s4.477 10 10 10h27c5.523 0 10-4.478 10-10s-4.477-10-10-10z"/><path d="m244 372h27c5.523 0 10-4.478 10-10s-4.477-10-10-10h-27c-5.523 0-10 4.478-10 10s4.477 10 10 10z"/><path d="m241 302c0-5.522-4.477-10-10-10h-27c-5.523 0-10 4.478-10 10s4.477 10 10 10h27c5.523 0 10-4.478 10-10z"/><path d="m502 492h-107.245l-10.115-69.05c-.38-2.36-1.59-4.521-3.41-6.07-2.21-1.87-5.16-2.7-8.03-2.25-2.64.42-4.95 1.84-6.53 4-1.57 2.16-2.2 4.8-1.79 7.439l4.09 25.931h-84.69c-4.128-11.639-15.243-20-28.28-20s-24.152 8.361-28.28 20h-84.69l.16-1.01c.86-5.44-2.88-10.57-8.32-11.431-2.87-.439-5.82.38-8.03 2.25-1.82 1.55-3.03 3.71-3.41 6.07l-6.185 44.121h-107.245c-5.523 0-10 4.478-10 10s4.477 10 10 10h492c5.523 0 10-4.478 10-10s-4.477-10-10-10zm-361.912-20h85.912v20h-88.578zm105.912 20v-30c0-5.514 4.486-10 10-10s10 4.486 10 10v30zm40 0v-20h85.912l2.667 20z"/><path d="m36 162c0 5.51 4.49 10 10 10h30c5.51 0 10-4.49 10-10s-4.49-10-10-10h-30c-5.51 0-10 4.49-10 10z"/><path d="m111 162c0 5.51 4.49 10 10 10s10-4.49 10-10-4.49-10-10-10-10 4.49-10 10z"/><path d="m42.41 81.33 18 6.93c1.15.44 2.36.66 3.59.66 4.11 0 7.86-2.57 9.33-6.41 1.98-5.14-.6-10.94-5.74-12.92l-18-6.92c-1.15-.45-2.36-.67-3.59-.67-4.11 0-7.86 2.569-9.33 6.41-.96 2.489-.89 5.21.19 7.649 1.09 2.441 3.06 4.311 5.55 5.271z"/><path d="m102.41 104.41c1.15.439 2.36.67 3.59.67 4.11 0 7.86-2.58 9.33-6.41.96-2.5.89-5.21-.19-7.65-1.09-2.45-3.06-4.319-5.55-5.279-1.16-.44-2.36-.671-3.59-.671-4.11 0-7.86 2.58-9.34 6.421-1.97 5.139.6 10.939 5.75 12.919z"/><path d="m96.688 221.791-54.278 20.876c-5.155 1.982-7.726 7.768-5.744 12.923 1.529 3.975 5.318 6.413 9.335 6.413 1.193 0 2.407-.216 3.588-.67l54.278-20.876c5.155-1.982 7.726-7.768 5.744-12.923s-7.767-7.724-12.923-5.743z"/></svg>
