<svg id="Capa_1" enable-background="new 0 0 512.135 512.135" height="32" viewBox="0 0 512.135 512.135" width="32" xmlns="http://www.w3.org/2000/svg"><path d="m344.781 286.218-88.67 19-88.67-19 14.03-63.25c1.52-6.86 7.61-11.75 14.64-11.75h120c7.03 0 13.12 4.89 14.64 11.75z" fill="#e6ffff"/><path d="m344.781 286.218-14.03-63.25c-1.52-6.86-7.61-11.75-14.64-11.75h-60v94z" fill="#d9f2ff"/><path d="m371.401 406.218-106.29 26-124.3-26 13.31-60 99.99-29 103.98 29z" fill="#e6ffff"/><path d="m256.111 317.776v112.559l9 1.883 106.29-26-13.31-60z" fill="#d9f2ff"/><path d="m211.111 92.218h90v120h-90z" fill="#725d57"/><path d="m256.111 92.218h45v120h-45z" fill="#53433f"/><path d="m497.111 212.218c-2.915 0-5.815-.85-8.32-2.52l-91-60c-4.175-2.783-6.68-7.471-6.68-12.48s2.505-9.697 6.68-12.48l91-60c4.6-3.076 10.532-3.369 15.396-.747 4.878 2.607 7.925 7.69 7.925 13.228v120c0 5.537-3.047 10.62-7.925 13.228-2.213 1.185-4.644 1.771-7.076 1.771z" fill="#fdbf00"/><path d="m15.111 212.218c-2.432 0-4.863-.586-7.075-1.772-4.878-2.607-7.925-7.69-7.925-13.228v-120c0-5.537 3.047-10.62 7.925-13.228 4.863-2.622 10.796-2.329 15.396.747l91 60c4.175 2.783 6.68 7.471 6.68 12.48s-2.505 9.697-6.68 12.48l-91 60c-2.505 1.671-5.406 2.521-8.321 2.521z" fill="#ffda2d"/><path d="m181.111 182.218v-15c0-8.291-6.709-15-15-15s-15 6.709-15 15v15 30c0 8.399 6.599 15 15 15h180c8.401 0 15-6.601 15-15v-30z" fill="#d9f2ff"/><path d="m346.111 152.218c-8.291 0-15 6.709-15 15v15h-75v45h90c8.401 0 15-6.601 15-15v-30-15c0-8.291-6.709-15-15-15z" fill="#cdf"/><path d="m271.111 31.808v-16.59c0-8.401-6.599-15-15-15s-15 6.599-15 15v16.59c-34.22 7.336-60 39.147-60 75.41 0 8.399 6.599 15 15 15h120c8.401 0 15-6.601 15-15 0-36.264-25.78-68.074-60-75.41z" fill="#ff641a"/><path d="m271.111 31.808v-16.59c0-8.401-6.599-15-15-15v30 31 61h60c8.401 0 15-6.601 15-15 0-36.264-25.78-68.074-60-75.41z" fill="#f03800"/><path d="m358.091 346.218h-203.97l13.32-60h177.34z" fill="#ff641a"/><path d="m256.111 346.218h101.98l-13.31-60h-88.67z" fill="#f03800"/><path d="m130.111 485.818c22.5 14.7 51 14.7 73.5 0 15.901-10.8 34.501-16.201 52.5-16.201 18.9 0 37.5 5.402 54 16.201 22.5 14.7 51 14.7 73.5 0 1.571-1.047 3.172-2.028 4.789-2.973l-16.999-76.626h-230.59l-16.825 75.842c2.078 1.169 4.121 2.421 6.125 3.757z" fill="#ff641a"/><path d="m256.111 406.218v63.399c18.9 0 37.5 5.402 54 16.201 22.5 14.7 51 14.7 73.5 0 1.571-1.047 3.172-2.028 4.789-2.973l-16.999-76.626h-115.29z" fill="#f03800"/><path d="m510.912 496.617c-3.001 7.5-11.7 11.4-19.501 8.101-5.7-2.401-11.4-5.4-16.8-9-22.5-14.702-52-14.702-74.5 0-16.199 10.8-34.799 16.199-53.399 16.199-18.301 0-36.901-5.4-53.101-16.199-11.4-7.5-24.3-11.102-37.5-11.102-12.299 0-24.901 3.602-36 11.102-32.401 21.599-74.099 21.599-106.5 0-22.5-14.702-52-14.702-74.5 0-5.7 3.898-11.999 7.2-18.6 9.598-7.8 3.001-16.5-.599-19.499-8.399-3.001-7.8.899-16.5 8.699-19.501 4.499-1.8 8.699-3.9 12.9-6.599 32.401-21.601 75.099-21.601 107.5 0 22.5 14.7 51 14.7 73.5 0 15.901-10.8 34.501-16.201 52.5-16.201 18.9 0 37.5 5.402 54 16.201 22.5 14.7 51 14.7 73.5 0 32.401-21.601 75.099-21.601 107.5 0 3.9 2.401 7.8 4.499 11.7 6.299 7.801 3.001 11.4 11.701 8.101 19.501z" fill="#a8ebfa"/><path d="m510.912 496.617c-3.001 7.5-11.7 11.4-19.501 8.101-5.7-2.401-11.4-5.4-16.8-9-22.5-14.702-52-14.702-74.5 0-16.199 10.8-34.799 16.199-53.399 16.199-18.301 0-36.901-5.4-53.101-16.199-11.4-7.5-24.3-11.102-37.5-11.102v-30c18.9 0 37.5 5.402 54 16.201 22.5 14.7 51 14.7 73.5 0 32.401-21.601 75.099-21.601 107.5 0 3.9 2.401 7.8 4.499 11.7 6.299 7.801 3.001 11.4 11.701 8.101 19.501z" fill="#76e2f8"/></svg>
