<?xml version="1.0" encoding="iso-8859-1"?>
<!-- Generator: Adobe Illustrator 19.0.0, SVG Export Plug-In . SVG Version: 6.00 Build 0)  -->
<svg version="1.1" id="Layer_1" xmlns="http://www.w3.org/2000/svg" xmlns:xlink="http://www.w3.org/1999/xlink" x="0px" y="0px"
	 viewBox="0 0 512 512" style="enable-background:new 0 0 512 512;" xml:space="preserve">
<path style="fill:#E6E6E6;" d="M367.336,472.579c-3.036,0.707-6.404,1.093-10.202,1.093c-33.71,0-33.71-30.916-67.431-30.916
	c-33.71,0-33.71,30.916-67.42,30.916c-14.288,0-22.525-5.544-29.823-11.947c-9.948-8.701-18.174-18.969-37.608-18.969
	c-2.981,0-5.697,0.243-8.204,0.685l12.974-189.926h192.753L367.336,472.579z"/>
<g>
	<polygon style="fill:#F94848;" points="358.381,341.394 195.264,388.895 149.464,402.234 155.647,311.77 198.72,299.227 
		352.441,254.464 	"/>
	<path style="fill:#F94848;" d="M367.336,472.579c-3.036,0.707-6.404,1.093-10.202,1.093c-27.516,0-32.573-20.593-51.84-28.167
		l59.017-17.181L367.336,472.579z"/>
</g>
<path style="fill:#CCCCCC;" d="M200.476,253.515l-8.016,208.211c-9.948-8.701-18.174-18.969-37.608-18.969
	c-2.981,0-5.697,0.243-8.204,0.685l12.974-189.926L200.476,253.515L200.476,253.515z"/>
<polygon style="fill:#DB3A3A;" points="198.72,299.227 195.264,388.895 149.464,402.234 155.647,311.77 "/>
<rect x="144.215" y="159.12" style="fill:#F94848;" width="223.581" height="94.405"/>
<rect x="144.215" y="159.12" style="fill:#DB3A3A;" width="43.016" height="94.405"/>
<path style="fill:#FFD41D;" d="M256.001,41.531L256.001,41.531c-46.648,0-84.464,37.815-84.464,84.464v33.124h168.927v-33.124
	C340.464,79.347,302.649,41.531,256.001,41.531z"/>
<path style="fill:#E8C11C;" d="M256.005,41.527c-28.487,0-51.586,37.817-51.586,84.468v33.125h-32.882v-33.125
	C171.537,79.345,209.354,41.527,256.005,41.527z"/>
<path style="fill:#FFFFFF;" d="M212.942,159.12c0-23.784,19.279-43.062,43.062-43.062s43.062,19.279,43.062,43.062"/>
<path style="fill:#F94848;" d="M330.531,86.246H181.459c14.211-26.61,42.256-44.718,74.542-44.718
	C288.275,41.527,316.321,59.636,330.531,86.246z"/>
<path id="SVGCleanerId_0" style="fill:#DB3A3A;" d="M255.073,41.538c-19.312,0.563-36.04,18.517-44.586,44.707h-29.028
	C195.537,59.89,223.174,41.87,255.073,41.538z"/>
<g>
	<path id="SVGCleanerId_0_1_" style="fill:#DB3A3A;" d="M255.073,41.538c-19.312,0.563-36.04,18.517-44.586,44.707h-29.028
		C195.537,59.89,223.174,41.87,255.073,41.538z"/>
</g>
<path style="fill:#40B3DB;" d="M492.002,512c-33.717,0-33.717-30.916-67.433-30.916S390.852,512,357.136,512
	c-33.715,0-33.715-30.916-67.43-30.916S255.992,512,222.279,512c-33.712,0-33.712-30.916-67.424-30.916
	c-33.713,0-33.713,30.916-67.428,30.916s-33.714-30.916-67.428-30.916v-38.326c33.714,0,33.714,30.916,67.428,30.916
	s33.713-30.916,67.428-30.916c33.712,0,33.712,30.916,67.424,30.916c33.714,0,33.714-30.916,67.428-30.916
	c33.715,0,33.715,30.916,67.43,30.916c33.717,0,33.717-30.916,67.433-30.916s33.717,30.916,67.433,30.916"/>
<path d="M461.524,109.433h-57.965c-4.575,0-8.281,3.708-8.281,8.281s3.707,8.281,8.281,8.281h57.965
	c4.575,0,8.281-3.708,8.281-8.281S466.099,109.433,461.524,109.433z"/>
<path d="M403.563,86.249c1.121,0,2.26-0.23,3.35-0.712l57.965-25.684c4.181-1.853,6.07-6.744,4.217-10.926
	c-1.855-4.181-6.745-6.07-10.927-4.217l-57.965,25.684c-4.181,1.853-6.07,6.744-4.217,10.926
	C397.358,84.412,400.387,86.249,403.563,86.249z"/>
<path d="M400.205,165.033l57.965,25.684c1.09,0.484,2.229,0.712,3.35,0.712c3.176,0,6.206-1.838,7.576-4.929
	c1.853-4.181-0.035-9.073-4.217-10.926l-57.965-25.684c-4.178-1.854-9.074,0.033-10.927,4.217
	C394.135,158.288,396.023,163.18,400.205,165.033z"/>
<path d="M108.449,109.433H50.483c-4.575,0-8.281,3.708-8.281,8.281s3.707,8.281,8.281,8.281h57.966c4.575,0,8.281-3.708,8.281-8.281
	S113.023,109.433,108.449,109.433z"/>
<path d="M47.128,59.854l57.966,25.683c1.09,0.484,2.229,0.712,3.35,0.712c3.176,0,6.206-1.838,7.576-4.929
	c1.853-4.181-0.035-9.073-4.217-10.926L53.837,44.712c-4.179-1.853-9.074,0.034-10.927,4.217
	C41.059,53.11,42.947,58.001,47.128,59.854z"/>
<path d="M50.487,191.429c1.122,0,2.26-0.23,3.35-0.712l57.966-25.684c4.181-1.853,6.07-6.744,4.217-10.926
	c-1.854-4.184-6.751-6.07-10.927-4.217l-57.966,25.684c-4.181,1.853-6.07,6.744-4.217,10.926
	C44.281,189.59,47.311,191.429,50.487,191.429z"/>
<path d="M492.003,465.394c-13.636,0-20.028-5.861-28.121-13.281c-9.014-8.267-19.232-17.636-39.312-17.636
	c-4.575,0-8.281,3.708-8.281,8.281s3.707,8.281,8.281,8.281c13.636,0,20.028,5.861,28.121,13.281
	c9.014,8.267,19.232,17.636,39.312,17.636c4.575,0,8.281-3.708,8.281-8.281S496.577,465.394,492.003,465.394z"/>
<path d="M397.254,442.321c-4.597,3.004-8.36,6.455-11.998,9.792c-3.554,3.258-6.781,6.215-10.436,8.509l-8.177-119.718
	c-0.006-0.092-0.01-0.182-0.019-0.274l-5.384-78.83h6.551c4.575,0,8.281-3.708,8.281-8.281v-94.401c0-4.573-3.707-8.281-8.281-8.281
	h-19.046v-24.842c0-10.867-1.9-21.494-5.495-31.466h8.807c4.575,0,8.281-3.708,8.281-8.281s-3.707-8.281-8.281-8.281h-16.709
	c-5.123-8.458-11.623-16.137-19.349-22.698c-3.487-2.96-8.714-2.534-11.672,0.953c-2.961,3.486-2.534,8.712,0.952,11.672
	c3.617,3.072,6.887,6.456,9.828,10.072H196.919C210.9,60.798,232.187,49.81,256.001,49.81c10.79,0,21.213,2.207,30.978,6.56
	c4.178,1.863,9.074-0.014,10.936-4.191c1.863-4.178-0.015-9.074-4.192-10.936c-9.38-4.181-19.252-6.73-29.44-7.626V8.281
	c0-4.573-3.707-8.281-8.281-8.281c-4.575,0-8.281,3.708-8.281,8.281v25.358c-30.094,2.678-56.107,19.769-71.033,44.328h-16.743
	c-4.575,0-8.281,3.708-8.281,8.281s3.707,8.281,8.281,8.281h8.818c-3.556,9.83-5.505,20.425-5.505,31.466v24.842H144.21
	c-4.575,0-8.281,3.708-8.281,8.281v15.89c0,4.573,3.707,8.281,8.281,8.281s8.281-3.708,8.281-8.281v-7.61H359.51v77.839H152.491
	v-42.625c0-4.573-3.707-8.281-8.281-8.281s-8.281,3.708-8.281,8.281v50.906c0,4.573,3.707,8.281,8.281,8.281h6.545l-11.959,175.061
	c-10.225,3.311-17.028,9.543-23.255,15.252c-8.09,7.42-14.481,13.281-28.116,13.281s-20.026-5.861-28.117-13.281
	c-9.014-8.267-19.232-17.636-39.311-17.636c-4.575,0-8.281,3.708-8.281,8.281s3.707,8.281,8.281,8.281
	c13.635,0,20.026,5.861,28.116,13.28c9.015,8.267,19.232,17.637,39.312,17.637c20.079,0,30.296-9.37,39.311-17.636
	c8.09-7.42,14.481-13.281,28.116-13.281c13.634,0,20.025,5.861,28.115,13.28c9.014,8.267,19.231,17.637,39.31,17.637
	s30.296-9.369,39.311-17.636c8.091-7.42,14.482-13.281,28.117-13.281c13.635,0,20.026,5.861,28.117,13.281
	c9.015,8.266,19.233,17.636,39.312,17.636s30.297-9.369,39.312-17.636c3.293-3.02,6.403-5.872,9.867-8.135
	c3.828-2.502,4.902-7.634,2.402-11.462C406.215,440.892,401.081,439.819,397.254,442.321z M222.228,150.837
	c3.727-15.191,17.452-26.498,33.776-26.498s30.05,11.307,33.776,26.498H222.228z M306.669,150.837
	c-3.973-24.384-25.175-43.06-50.665-43.06c-25.491,0-46.693,18.676-50.665,43.06h-25.52v-24.842c0-11.218,2.457-21.867,6.83-31.466
	h138.729c4.431,9.766,6.807,20.466,6.807,31.466v24.842H306.669z M250.395,452.113c-8.09,7.42-14.481,13.28-28.116,13.28
	c-13.634,0-20.025-5.861-28.115-13.28c-8.905-8.166-19.003-17.394-38.605-17.616l1.771-25.93l138.3-40.275
	c4.392-1.279,6.915-5.875,5.636-10.266c-1.278-4.39-5.866-6.916-10.266-5.636l-132.468,38.577l4.978-72.862l49.936-14.541
	c4.392-1.279,6.915-5.875,5.636-10.266c-1.278-4.39-5.866-6.916-10.266-5.636l-44.103,12.842l2.644-38.705H297.63l-63.924,18.614
	c-4.392,1.279-6.915,5.875-5.636,10.265c1.053,3.618,4.359,5.968,7.948,5.968c0.765,0,1.545-0.107,2.319-0.332l106.541-31.025
	l4.782,70.018l-32.581,9.488c-4.392,1.279-6.915,5.875-5.636,10.265c1.053,3.618,4.359,5.968,7.948,5.968
	c0.765,0,1.545-0.107,2.319-0.332l29.107-8.475l4.782,70.014l-50.029,14.567c-4.536-1.448-9.735-2.326-15.862-2.326
	C269.627,434.477,259.409,443.847,250.395,452.113z M329.018,452.113c-1.329-1.219-2.691-2.46-4.1-3.692l31.834-9.269l1.79,26.204
	c-0.466,0.014-0.921,0.039-1.406,0.039C343.501,465.394,337.11,459.533,329.018,452.113z"/>
<g>
</g>
<g>
</g>
<g>
</g>
<g>
</g>
<g>
</g>
<g>
</g>
<g>
</g>
<g>
</g>
<g>
</g>
<g>
</g>
<g>
</g>
<g>
</g>
<g>
</g>
<g>
</g>
<g>
</g>
</svg>
