<svg height="512" viewBox="0 0 512 512" width="512" xmlns="http://www.w3.org/2000/svg"><circle cx="256.037" cy="255.997" fill="#69b9e7" r="232"/><path d="m85.209 368a7.985 7.985 0 0 1 -6.836-3.836q-1.266-2.069-2.477-4.184a208.387 208.387 0 0 1 -25.187-137.27 8 8 0 0 1 15.8 2.571 192.325 192.325 0 0 0 23.254 126.719c.75 1.3 1.5 2.574 2.266 3.836a8 8 0 0 1 -6.82 12.164z" fill="#74cdff"/><path d="m426.905 368a8 8 0 0 1 -6.828-12.153 192.487 192.487 0 0 0 25.539-130.57 8 8 0 1 1 15.8-2.555 208.514 208.514 0 0 1 -27.665 141.43 7.99 7.99 0 0 1 -6.846 3.848z" fill="#74cdff"/><path d="m199.998 351.996v8h112v-8l-16-144.001v-32h8v-56l-8-8h-80l-8 8v56h8v32z" fill="#cdcdcd"/><path d="m203.128 323.822 101.51-38.067-5.12-46.079-90.824 34.059z" fill="#de4c3b"/><path d="m256 328a8 8 0 0 0 -8 8v16h16v-16a8 8 0 0 0 -8-8z" fill="#fbeebd"/><path d="m264 288a8 8 0 0 0 -16 0v16a7.907 7.907 0 0 0 .563 2.79l15.437-5.79z" fill="#fbeebd"/><path d="m264 240a8 8 0 0 0 -16 0v16a7.9 7.9 0 0 0 .563 2.789l15.437-5.789z" fill="#fbeebd"/><g fill="#fdb62f"><path d="m176.006 144a8.024 8.024 0 0 1 -2.11-.285l-88-24a8 8 0 1 1 4.2-15.438l88 24a8 8 0 0 1 -2.09 15.723z"/><path d="m87.99 200a8 8 0 0 1 -2.09-15.723l88-24a8 8 0 1 1 4.2 15.438l-88 24a8.011 8.011 0 0 1 -2.11.285z"/><path d="m335.99 144a8 8 0 0 1 -2.093-15.723l88-24a8 8 0 1 1 4.2 15.438l-88 24a8.013 8.013 0 0 1 -2.107.285z"/><path d="m424.006 200a8.011 8.011 0 0 1 -2.109-.285l-88-24a8 8 0 1 1 4.2-15.438l88 24a8 8 0 0 1 -2.091 15.723z"/></g><path d="m295.998 207.995h-80l-8-32h96z" fill="#a8a8a8"/><path d="m272 176h-32v-16a16 16 0 0 1 16-16 16 16 0 0 1 16 16z" fill="#a8a8a8"/><path d="m252 144.561a15.962 15.962 0 0 0 -12 15.439v16h24v-16a15.962 15.962 0 0 0 -12-15.439z" fill="#fbeebd"/><path d="m312 120-48-41.148v-22.852a8 8 0 0 0 -16 0v22.852l-48 41.148z" fill="#de4c3b"/><path d="m319.998 479.022v-95.026l8-16v-16h-144v16l8 16v94.924z" fill="#b9b9b9"/><path d="m421.607 386.714-9.716 7.03a40 40 0 0 1 -46.906-.01l-9.695-7.02-9.68 7.011a40 40 0 0 1 -46.92 0l-9.69-7.011-9.691 7.016a40 40 0 0 1 -46.915 0l-9.691-7.016-9.664 7a40 40 0 0 1 -46.937-.006l-9.651-6.994-9.664 7a40 40 0 0 1 -46.94-.01l-9.64-6.989-9.64 6.985a39.749 39.749 0 0 1 -7.919 4.334c69.9 90.482 197.628 117.634 299.389 58.882a231.25 231.25 0 0 0 67.363-58.773 39.757 39.757 0 0 1 -8.036-4.373z" fill="#4298d1"/><path d="m372.037 456.916c4.957-2.863 9.716-5.932 14.379-9.1a39.812 39.812 0 0 1 -21.431-7.445l-9.695-7.02-9.68 7.011a40 40 0 0 1 -46.92 0l-9.69-7.007-9.691 7.016a40 40 0 0 1 -46.915 0l-9.691-7.016-9.664 7a40 40 0 0 1 -46.937-.006l-9.651-6.994-9.664 7a39.814 39.814 0 0 1 -21.365 7.442 232.013 232.013 0 0 0 246.615 9.119z" fill="#3e8cc7"/><path d="m327.995 367.996h-143.997l8 16h128l7.997-15.995z" fill="#a8a8a8"/></svg>