<svg height="32pt" viewBox="-19 0 407 407.65099" width="32pt" xmlns="http://www.w3.org/2000/svg"><path d="m358.585938 262.832031c2.960937-12.851562 4.527343-26.238281 4.527343-39.988281 0-98.296875-79.6875-177.980469-177.984375-177.980469-91.050781 0-166.082031 68.382813-176.65625 156.585938l45.273438 39.613281c16.707031 14.617188 39.328125 20.488281 61.035156 15.835938 21.300781-4.5625 43.515625 1.003906 60.148438 15.074218l16.300781 13.796875c13.332031 11.277344 30.386719 17.195313 47.839843 16.59375l107.09375-3.691406" fill="#eaeaea"/><path d="m236.625 309.234375c-18.234375 0-35.824219-6.425781-49.800781-18.25l-16.304688-13.800781c-14.914062-12.613282-35.230469-17.707032-54.308593-13.605469-23.714844 5.074219-48.726563-1.421875-66.953126-17.378906l-45.277343-39.617188c-1.699219-1.480469-2.554688-3.707031-2.289063-5.949219 11.121094-92.695312 89.980469-162.601562 183.441406-162.601562 101.898438 0 184.804688 82.90625 184.804688 184.808594 0 14.007812-1.578125 27.976562-4.699219 41.523437-.847656 3.667969-4.480469 5.953125-8.1875 5.121094-3.671875-.847656-5.964843-4.511719-5.121093-8.1875 2.886718-12.542969 4.355468-25.480469 4.355468-38.457031 0-94.375-76.78125-171.152344-171.152344-171.152344-85.355468 0-157.558593 62.960938-169.421874 147.019531l42.535156 37.21875c15.003906 13.125 35.589844 18.480469 55.097656 14.296875 23.1875-4.960937 47.875 1.207032 65.992188 16.535156l16.308593 13.800782c12.066407 10.210937 27.417969 15.511718 43.195313 14.980468l107.09375-3.695312c3.738281-.21875 6.917968 2.820312 7.050781 6.585938.132813 3.773437-2.816406 6.933593-6.585937 7.0625l-107.09375 3.691406c-.890626.035156-1.785157.050781-2.679688.050781zm0 0" fill="#602f75"/><path d="m131.003906 307.199219 47.789063 47.789062h47.785156l-95.574219-95.574219zm0 0" fill="#fff"/><path d="m226.578125 361.8125h-47.785156c-1.8125 0-3.546875-.71875-4.828125-2l-47.785156-47.785156c-1.28125-1.28125-2-3.019532-2-4.828125v-47.785157c0-2.761718 1.660156-5.25 4.210937-6.308593 2.5625-1.050781 5.488281-.472657 7.441406 1.480469l95.574219 95.574218c1.953125 1.953125 2.539062 4.886719 1.476562 7.4375-1.050781 2.554688-3.542968 4.214844-6.304687 4.214844zm-44.960937-13.652344h28.480468l-72.265625-72.265625v28.480469zm0 0" fill="#602f75"/><path d="m240.230469 211.625h-61.4375l61.4375 61.441406zm0 0" fill="#fff"/><path d="m240.230469 279.894531c-1.773438 0-3.519531-.695312-4.824219-2l-61.441406-61.441406c-1.953125-1.953125-2.539063-4.886719-1.480469-7.4375 1.054687-2.550781 3.546875-4.214844 6.308594-4.214844h61.4375c3.773437 0 6.828125 3.054688 6.828125 6.824219v61.441406c0 2.761719-1.660156 5.25-4.214844 6.304688-.847656.351562-1.730469.523437-2.613281.523437zm-44.960938-61.441406 38.136719 38.132813v-38.132813zm0 0" fill="#602f75"/><path d="m131.003906 354.988281h47.789063l-47.789063-47.789062zm0 0" fill="#fff"/><path d="m178.792969 361.8125h-47.789063c-3.773437 0-6.824218-3.054688-6.824218-6.824219v-47.789062c0-2.757813 1.660156-5.25 4.210937-6.304688 2.5625-1.050781 5.488281-.472656 7.441406 1.480469l47.785157 47.785156c1.953124 1.953125 2.539062 4.886719 1.480468 7.4375-1.054687 2.554688-3.546875 4.214844-6.304687 4.214844zm-40.960938-13.652344h24.480469l-24.480469-24.480468zm0 0" fill="#602f75"/><path d="m240.230469 273.066406-61.4375-61.441406h-47.789063l109.226563 109.226562zm0 0" fill="#ffe600"/><path d="m240.230469 327.679688c-1.773438 0-3.519531-.691407-4.824219-2l-109.226562-109.226563c-1.957032-1.953125-2.539063-4.886719-1.480469-7.4375 1.050781-2.550781 3.546875-4.214844 6.304687-4.214844h47.789063c1.8125 0 3.546875.71875 4.824219 2l61.441406 61.4375c1.28125 1.28125 2 3.019531 2 4.828125v47.785156c0 2.761719-1.660156 5.25-4.214844 6.308594-.847656.351563-1.730469.519532-2.613281.519532zm-92.746094-109.226563 85.921875 85.921875v-28.480469l-57.441406-57.441406zm0 0" fill="#602f75"/><path d="m240.230469 320.851562-109.226563-109.226562v47.789062l95.574219 95.574219h13.652344zm0 0" fill="#fff"/><path d="m240.230469 361.8125h-13.652344c-1.8125 0-3.546875-.71875-4.828125-2l-95.570312-95.574219c-1.28125-1.277343-2-3.015625-2-4.824219v-47.789062c0-2.757812 1.660156-5.246094 4.210937-6.304688 2.5625-1.046874 5.488281-.46875 7.441406 1.480469l109.226563 109.226563c1.28125 1.28125 2 3.015625 2 4.824218v34.136719c0 3.769531-3.054688 6.824219-6.828125 6.824219zm-10.824219-13.652344h4v-24.480468l-95.574219-95.574219v28.480469zm0 0" fill="#602f75"/><path d="m137.832031 184.320312h95.574219v27.304688h-95.574219zm0 0" fill="#fff"/><path d="m233.40625 218.453125h-95.574219c-3.773437 0-6.828125-3.054687-6.828125-6.828125v-27.304688c0-3.769531 3.054688-6.828124 6.828125-6.828124h95.574219c3.773438 0 6.824219 3.058593 6.824219 6.828124v27.304688c0 3.773438-3.050781 6.828125-6.824219 6.828125zm-88.746094-13.652344h81.917969v-13.652343h-81.917969zm0 0" fill="#602f75"/><path d="m217.570312 184.320312h-64.878906l-9.007812-75.09375h82.894531zm0 0" fill="#ffe600"/><path d="m217.566406 191.148438h-64.875c-3.453125 0-6.367187-2.585938-6.78125-6.015626l-9.003906-75.09375c-.234375-1.9375.378906-3.882812 1.671875-5.34375 1.292969-1.460937 3.152344-2.296874 5.105469-2.296874h82.894531c1.953125 0 3.8125.835937 5.105469 2.296874 1.292968 1.460938 1.90625 3.410157 1.671875 5.34375l-9.011719 75.09375c-.414062 3.433594-3.324219 6.015626-6.777344 6.015626zm-58.816406-13.65625h52.761719l7.371093-61.4375h-67.503906zm0 0" fill="#602f75"/><path d="m124.179688 81.921875h122.878906v27.304687h-122.878906zm0 0" fill="#fff"/><path d="m247.058594 116.054688h-122.878906c-3.773438 0-6.828126-3.058594-6.828126-6.828126v-27.304687c0-3.773437 3.054688-6.828125 6.828126-6.828125h122.878906c3.773437 0 6.828125 3.054688 6.828125 6.828125v27.304687c0 3.769532-3.054688 6.828126-6.828125 6.828126zm-116.054688-13.65625h109.226563v-13.652344h-109.226563zm0 0" fill="#602f75"/><path d="m221.703125 81.921875h-73.144531v-5.367187c0-20.195313 16.375-36.570313 36.574218-36.570313 20.199219 0 36.570313 16.375 36.570313 36.570313zm0 0" fill="#fff"/><path d="m221.707031 88.746094h-73.148437c-3.773438 0-6.828125-3.054688-6.828125-6.824219v-5.367187c0-23.929688 19.46875-43.398438 43.402343-43.398438 23.933594 0 43.398438 19.46875 43.398438 43.398438v5.367187c0 3.769531-3.050781 6.824219-6.824219 6.824219zm-66.289062-13.652344h59.425781c-.765625-15.726562-13.800781-28.285156-29.710938-28.285156-15.914062 0-28.949218 12.558594-29.714843 28.285156zm0 0" fill="#602f75"/><path d="m185.617188 47.785156c-3.773438 0-6.824219-3.054687-6.824219-6.824218v-34.132813c0-3.773437 3.050781-6.828125 6.824219-6.828125 3.773437 0 6.828124 3.054688 6.828124 6.828125v34.132813c0 3.769531-3.054687 6.824218-6.828124 6.824218zm0 0" fill="#602f75"/><path d="m199.273438 150.1875c0 7.539062-6.113282 13.652344-13.65625 13.652344-7.539063 0-13.652344-6.113282-13.652344-13.652344 0-7.542969 6.113281-13.652344 13.652344-13.652344 7.542968 0 13.65625 6.109375 13.65625 13.652344zm0 0" fill="#ea3457"/><path d="m346.164062 298.671875-107.09375 3.691406c-17.453124.605469-34.507812-5.3125-47.839843-16.59375l-16.300781-13.792969c-16.632813-14.074218-38.847657-19.640624-60.148438-15.074218-21.707031 4.648437-44.332031-1.222656-61.035156-15.835938l-45.269532-39.617187c-.84375 7.019531-1.324218 14.148437-1.324218 21.390625 0 11.613281 1.148437 22.957031 3.273437 33.949218l43.324219 37.910157c16.703125 14.617187 39.328125 20.488281 61.03125 15.835937 21.304688-4.5625 43.519531 1.003906 60.148438 15.078125l16.304687 13.792969c13.332031 11.28125 30.382813 17.195312 47.839844 16.59375l66.652343-2.296875c16.789063-15.476563 30.582032-34.136719 40.4375-55.03125zm0 0" fill="#00e7ff"/><path d="m236.625 362.871094c-18.234375 0-35.824219-6.429688-49.800781-18.25l-16.300781-13.796875c-14.910157-12.609375-35.210938-17.703125-54.320313-13.609375-23.671875 5.074218-48.71875-1.425782-66.945313-17.378906l-43.324218-37.910157c-1.148438-1-1.921875-2.347656-2.207032-3.839843-2.261718-11.652344-3.402343-23.511719-3.402343-35.246094 0-7.144532.460937-14.613282 1.367187-22.203125.300782-2.515625 1.972656-4.65625 4.335938-5.5625 2.351562-.902344 5.023437-.441407 6.9375 1.238281l45.28125 39.617188c15.003906 13.125 35.589844 18.476562 55.097656 14.296874 23.1875-4.960937 47.875 1.203126 65.992188 16.535157l16.308593 13.800781c12.066407 10.207031 27.417969 15.507812 43.195313 14.976562l107.09375-3.691406c2.371094-.152344 4.625 1.074219 5.933594 3.070313 1.3125 1.984375 1.484374 4.511719.472656 6.664062-10.214844 21.648438-24.339844 40.871094-41.988282 57.140625-1.199218 1.105469-2.757812 1.746094-4.394531 1.804688l-66.652343 2.296875c-.890626.03125-1.785157.046875-2.679688.046875zm-107.304688-60.695313c18.117188 0 36.023438 6.382813 50.019532 18.230469l16.300781 13.792969c12.070313 10.203125 27.425781 15.542969 43.199219 14.976562l64.09375-2.207031c12.726562-12.074219 23.40625-25.847656 31.859375-41.074219l-95.488281 3.292969c-19.164063.644531-37.816407-5.800781-52.476563-18.203125l-16.308594-13.800781c-14.914062-12.613282-35.226562-17.707032-54.304687-13.605469-23.714844 5.074219-48.730469-1.421875-66.953125-17.378906l-35.105469-30.714844c-.113281 2.488281-.175781 4.941406-.175781 7.355469 0 10.101562.914062 20.308594 2.726562 30.371094l41.542969 36.355468c15.003906 13.128906 35.589844 18.472656 55.097656 14.296875 5.277344-1.132812 10.636719-1.6875 15.972656-1.6875zm0 0" fill="#602f75"/><path d="m191.234375 339.410156-16.304687-13.796875c-16.628907-14.074219-38.84375-19.640625-60.148438-15.074219-21.703125 4.648438-44.328125-1.222656-61.03125-15.835937l-43.324219-37.910156c7.886719 40.835937 29.722657 76.691406 60.371094 102.414062 9.558594 2.039063 19.539063 2.195313 29.355469.09375 21.304687-4.566406 43.519531 1.003907 60.152344 15.074219l16.300781 13.792969c6.261719 5.300781 13.367187 9.363281 20.925781 12.175781 41.636719-2.867188 79.328125-20.023438 108.199219-46.640625l-66.65625 2.300781c-17.457031.601563-34.511719-5.316406-47.839844-16.59375zm0 0" fill="#fff"/><path d="m197.53125 407.171875c-.8125 0-1.617188-.140625-2.378906-.429687-8.488282-3.15625-16.207032-7.648438-22.953125-13.363282l-16.308594-13.796875c-14.90625-12.621093-35.226563-17.707031-54.304687-13.605469-10.519532 2.246094-21.355469 2.21875-32.207032-.089843-1.09375-.234375-2.113281-.730469-2.964844-1.449219-32.441406-27.21875-54.703124-64.992188-62.6875-106.355469-.550781-2.863281.773438-5.761719 3.300782-7.214843 2.527344-1.445313 5.699218-1.136719 7.894531.785156l43.328125 37.910156c15.003906 13.128906 35.589844 18.472656 55.097656 14.296875 23.214844-4.972656 47.878906 1.210937 65.992188 16.542969l16.300781 13.789062c12.074219 10.207032 27.425781 15.550782 43.199219 14.980469l66.65625-2.296875c2.992187-.078125 5.464844 1.59375 6.546875 4.230469 1.085937 2.640625.410156 5.679687-1.6875 7.617187-30.753907 28.359375-70.652344 45.558594-112.355469 48.433594-.15625.011719-.316406.015625-.46875.015625zm-82.832031-56.230469c18.113281 0 36.019531 6.378906 50.011719 18.21875l16.308593 13.800782c5.171875 4.378906 11.070313 7.898437 17.539063 10.464843 31.480468-2.449219 61.792968-13.71875 87.238281-32.203125l-46.492187 1.601563c-19.164063.605469-37.820313-5.800781-52.480469-18.203125 0-.003906 0-.003906 0-.003906l-16.300781-13.792969c-14.910157-12.609375-35.210938-17.703125-54.320313-13.609375-23.671875 5.074218-48.71875-1.425782-66.945313-17.378906l-26.640624-23.304688c9.742187 29.425781 27.476562 55.960938 51.253906 76.332031 8.398437 1.578125 16.753906 1.496094 24.847656-.242187 5.28125-1.128906 10.640625-1.679688 15.980469-1.679688zm0 0" fill="#602f75"/><path d="m160.300781 374.375c-16.628906-14.070312-38.847656-19.640625-60.148437-15.074219-9.816406 2.101563-19.796875 1.945313-29.355469-.089843 30.925781 25.957031 70.792969 41.613281 114.332031 41.613281 4.175782 0 8.300782-.195313 12.398438-.476563-7.558594-2.8125-14.660156-6.878906-20.925782-12.179687zm0 0" fill="#00e7ff"/><path d="m185.132812 407.652344c-43.359374 0-85.519531-15.347656-118.71875-43.210938-2.402343-2.015625-3.121093-5.40625-1.746093-8.222656 1.367187-2.8125 4.480469-4.328125 7.550781-3.683594 8.96875 1.910156 17.882812 1.9375 26.5.089844 23.1875-4.96875 47.875 1.203125 65.996094 16.539062h.003906l16.300781 13.796876c5.535157 4.6875 11.894531 8.382812 18.894531 10.992187 3.011719 1.117187 4.839844 4.191406 4.371094 7.375-.460937 3.183594-3.078125 5.609375-6.285156 5.828125-4.253906.292969-8.542969.496094-12.867188.496094zm-91.800781-40.382813c23.71875 15.078125 50.90625 24.136719 79.027344 26.25-.054687-.046875-.105469-.09375-.160156-.136719l-16.308594-13.796874c-14.90625-12.621094-35.226563-17.710938-54.304687-13.609376-2.734376.585938-5.488282 1.015626-8.253907 1.292969zm0 0" fill="#602f75"/></svg>
