<?xml version="1.0" encoding="iso-8859-1"?>
<!-- Generator: Adobe Illustrator 19.0.0, SVG Export Plug-In . SVG Version: 6.00 Build 0)  -->
<svg version="1.1" id="Capa_1" xmlns="http://www.w3.org/2000/svg" xmlns:xlink="http://www.w3.org/1999/xlink" x="0px" y="0px"
	 viewBox="0 0 512 512" style="enable-background:new 0 0 512 512;" xml:space="preserve">
<g>
	<g>
		<path d="M375.031,466.637l-17.067-51.2c-1.169-3.49-4.429-5.837-8.098-5.837H162.133c-3.669,0-6.929,2.347-8.09,5.837
			l-17.067,51.2c-0.87,2.594-0.435,5.461,1.169,7.689c1.604,2.227,4.173,3.541,6.921,3.541h221.867c2.748,0,5.325-1.323,6.929-3.541
			C375.467,472.107,375.902,469.24,375.031,466.637z M156.902,460.8l11.383-34.133h175.428l11.375,34.133H156.902z"/>
	</g>
</g>
<g>
	<g>
		<path d="M341.291,417.28l-17.067-170.667c-0.435-4.352-4.104-7.68-8.491-7.68H196.267c-4.386,0-8.055,3.328-8.491,7.68
			L170.709,417.28c-0.239,2.406,0.555,4.796,2.167,6.579c1.613,1.792,3.917,2.807,6.323,2.807h153.6c2.406,0,4.71-1.015,6.323-2.807
			C340.745,422.076,341.53,419.678,341.291,417.28z M188.629,409.6l15.36-153.6h104.021l15.36,153.6H188.629z"/>
	</g>
</g>
<g>
	<g>
		<path d="M221.867,93.867h-34.133c-4.71,0-8.533,3.814-8.533,8.533v68.267c0,4.719,3.823,8.533,8.533,8.533h34.133
			c4.71,0,8.533-3.814,8.533-8.533V102.4C230.4,97.681,226.577,93.867,221.867,93.867z M213.333,162.133h-17.067v-51.2h17.067
			V162.133z"/>
	</g>
</g>
<g>
	<g>
		<path d="M324.267,93.867h-34.133c-4.71,0-8.533,3.814-8.533,8.533v68.267c0,4.719,3.823,8.533,8.533,8.533h34.133
			c4.71,0,8.533-3.814,8.533-8.533V102.4C332.8,97.681,328.977,93.867,324.267,93.867z M315.733,162.133h-17.067v-51.2h17.067
			V162.133z"/>
	</g>
</g>
<g>
	<g>
		<path d="M290.133,93.867H256c-4.71,0-8.533,3.814-8.533,8.533v68.267c0,4.719,3.823,8.533,8.533,8.533h34.133
			c4.71,0,8.533-3.814,8.533-8.533V102.4C298.667,97.681,294.844,93.867,290.133,93.867z M281.6,162.133h-17.067v-51.2H281.6
			V162.133z"/>
	</g>
</g>
<g>
	<g>
		<path d="M256,93.867h-34.133c-4.71,0-8.533,3.814-8.533,8.533v68.267c0,4.719,3.823,8.533,8.533,8.533H256
			c4.71,0,8.533-3.814,8.533-8.533V102.4C264.533,97.681,260.71,93.867,256,93.867z M247.467,162.133H230.4v-51.2h17.067V162.133z"
			/>
	</g>
</g>
<g>
	<g>
		<path d="M256,0c-4.71,0-8.533,3.814-8.533,8.533v34.133c0,4.719,3.823,8.533,8.533,8.533s8.533-3.814,8.533-8.533V8.533
			C264.533,3.814,260.71,0,256,0z"/>
	</g>
</g>
<g>
	<g>
		<path d="M384,460.8H128c-4.71,0-8.533,3.814-8.533,8.533v34.133c0,4.719,3.823,8.533,8.533,8.533h256
			c4.71,0,8.533-3.814,8.533-8.533v-34.133C392.533,464.614,388.71,460.8,384,460.8z M375.467,494.933H136.533v-17.067h238.933
			V494.933z"/>
	</g>
</g>
<g>
	<g>
		<path d="M341.333,162.133H170.667c-4.71,0-8.533,3.814-8.533,8.533V204.8c0,4.719,3.823,8.533,8.533,8.533h170.667
			c4.71,0,8.533-3.814,8.533-8.533v-34.133C349.867,165.948,346.044,162.133,341.333,162.133z M332.8,196.267H179.2V179.2h153.6
			V196.267z"/>
	</g>
</g>
<g>
	<g>
		<path d="M330.769,357.897l-3.012-51.2c-0.265-4.506-3.994-8.03-8.516-8.03h-126.49c-4.514,0-8.252,3.524-8.525,8.038l-3.012,51.2
			c-0.137,2.338,0.7,4.642,2.313,6.349c1.613,1.715,3.866,2.679,6.212,2.679h132.523c2.347,0,4.591-0.964,6.195-2.688
			C330.069,362.539,330.906,360.235,330.769,357.897z M198.793,349.867l2.005-34.133h110.404l2.005,34.133H198.793z"/>
	</g>
</g>
<g>
	<g>
		<path d="M328.09,69.163l-68.267-34.133c-2.406-1.203-5.231-1.203-7.637,0l-68.267,34.133c-2.893,1.451-4.719,4.403-4.719,7.637
			v25.6c0,4.719,3.823,8.533,8.533,8.533h136.533c4.71,0,8.533-3.814,8.533-8.533V76.8C332.8,73.566,330.974,70.613,328.09,69.163z
			 M315.733,93.867H196.267V82.074L256,52.207l59.733,29.867V93.867z"/>
	</g>
</g>
<g>
	<g>
		<path d="M339.866,200.013c-1.587-2.338-4.232-3.746-7.066-3.746H179.2c-2.833,0-5.478,1.399-7.066,3.746s-1.903,5.325-0.853,7.953
			l17.067,42.667c1.289,3.243,4.429,5.367,7.919,5.367h119.467c3.49,0,6.63-2.125,7.919-5.367l17.067-42.667
			C341.777,205.338,341.453,202.351,339.866,200.013z M309.956,238.933H202.044l-10.24-25.6h128.393L309.956,238.933z"/>
	</g>
</g>
<g>
	<g>
		<path d="M443.733,290.133c-19.251,0-36.062,10.684-44.8,26.436c-6.127-5.803-14.387-9.37-23.467-9.37
			c-4.71,0-8.533,3.814-8.533,8.533s3.823,8.533,8.533,8.533c9.412,0,17.067,7.654,17.067,17.067c0,4.719,3.823,8.533,8.533,8.533
			s8.533-3.814,8.533-8.533c0-18.825,15.309-34.133,34.133-34.133c4.71,0,8.533-3.814,8.533-8.533S448.444,290.133,443.733,290.133z
			"/>
	</g>
</g>
<g>
	<g>
		<path d="M102.4,8.533c-19.251,0-36.062,10.684-44.8,26.436c-6.127-5.803-14.387-9.37-23.467-9.37c-4.71,0-8.533,3.814-8.533,8.533
			s3.823,8.533,8.533,8.533c9.412,0,17.067,7.654,17.067,17.067c0,4.719,3.823,8.533,8.533,8.533s8.533-3.814,8.533-8.533
			c0-18.825,15.309-34.133,34.133-34.133c4.71,0,8.533-3.814,8.533-8.533S107.11,8.533,102.4,8.533z"/>
	</g>
</g>
<g>
	<g>
		<path d="M474.377,59.921c-6.622-15.343-21.931-25.788-39.177-25.788s-32.555,10.445-39.177,25.788
			c-19.959-2.15-37.623,13.952-37.623,33.946c0,18.825,15.309,34.133,34.133,34.133h85.333C496.691,128,512,112.691,512,93.867
			C512,73.873,494.328,57.796,474.377,59.921z M477.867,110.933h-85.333c-9.412,0-17.067-7.654-17.067-17.067
			c0-9.412,7.654-17.067,17.067-17.067c2.014,0,4.07,0.41,6.118,1.203c2.347,0.913,4.983,0.759,7.194-0.469
			c2.21-1.212,3.772-3.337,4.267-5.803C412.501,59.836,423.049,51.2,435.2,51.2c12.151,0,22.699,8.636,25.088,20.531
			c0.495,2.466,2.057,4.591,4.267,5.803c2.21,1.229,4.847,1.391,7.194,0.469c11.622-4.497,23.185,4.446,23.185,15.864
			C494.933,103.279,487.279,110.933,477.867,110.933z"/>
	</g>
</g>
<g>
	<g>
		<path d="M115.977,230.588C109.355,215.245,94.046,204.8,76.8,204.8c-17.246,0-32.555,10.445-39.177,25.788
			C17.655,228.446,0,244.54,0,264.533c0,18.825,15.309,34.133,34.133,34.133h85.333c18.825,0,34.133-15.309,34.133-34.133
			C153.6,244.548,135.91,228.471,115.977,230.588z M119.467,281.6H34.133c-9.412,0-17.067-7.654-17.067-17.067
			c0-9.412,7.654-17.067,17.067-17.067c2.014,0,4.07,0.41,6.118,1.203c2.347,0.922,4.984,0.751,7.194-0.469
			c2.21-1.212,3.772-3.337,4.267-5.803c2.389-11.896,12.937-20.531,25.088-20.531c12.151,0,22.699,8.636,25.088,20.531
			c0.495,2.466,2.057,4.591,4.267,5.803c2.219,1.229,4.847,1.399,7.194,0.469c11.622-4.48,23.185,4.446,23.185,15.863
			C136.533,273.946,128.879,281.6,119.467,281.6z"/>
	</g>
</g>
<g>
	<g>
		<path d="M42.667,494.933H8.533c-4.71,0-8.533,3.814-8.533,8.533C0,508.186,3.823,512,8.533,512h34.133
			c4.71,0,8.533-3.814,8.533-8.533C51.2,498.748,47.377,494.933,42.667,494.933z"/>
	</g>
</g>
<g>
	<g>
		<path d="M503.467,494.933H384c-4.71,0-8.533,3.814-8.533,8.533c0,4.719,3.823,8.533,8.533,8.533h119.467
			c4.71,0,8.533-3.814,8.533-8.533C512,498.748,508.177,494.933,503.467,494.933z"/>
	</g>
</g>
<g>
	<g>
		<path d="M128,494.933h-25.6c-4.71,0-8.533,3.814-8.533,8.533c0,4.719,3.823,8.533,8.533,8.533H128c4.71,0,8.533-3.814,8.533-8.533
			C136.533,498.748,132.71,494.933,128,494.933z"/>
	</g>
</g>
<g>
</g>
<g>
</g>
<g>
</g>
<g>
</g>
<g>
</g>
<g>
</g>
<g>
</g>
<g>
</g>
<g>
</g>
<g>
</g>
<g>
</g>
<g>
</g>
<g>
</g>
<g>
</g>
<g>
</g>
</svg>
