<svg id="Capa_1" enable-background="new 0 0 48.002 48.002" height="32" viewBox="0 0 512.002 512.002" width="32" xmlns="http://www.w3.org/2000/svg"><g><g><path d="m188.16 112.395h135.682v84.862h-135.682z" fill="#eaf6ff"/><path d="m293.842 112.395h30v84.862h-30z" fill="#d8ecfe"/><path d="m271.001 42.502h-30v-20c0-8.284 6.716-15 15-15 8.284 0 15 6.716 15 15z" fill="#fed402"/><path d="m257.97 7.646c1.227 2.175 1.936 4.681 1.936 7.356v8.506c0 6.348-5.146 11.494-11.494 11.494h-7.411v7.5h30v-20c0-7.615-5.68-13.89-13.031-14.856z" fill="#fac600"/><path d="m346.411 112.395h-180.82c-4.763 0-6.828-6.028-3.067-8.949l78.477-60.944h30l78.477 60.944c3.761 2.922 1.695 8.949-3.067 8.949z" fill="#fd4755"/><path d="m349.478 103.446-78.477-60.944h-30l-1.111.863 47.075 36.558c8.525 6.621 3.843 20.282-6.951 20.282h-113.317l-4.173 3.241c-3.762 2.921-1.696 8.949 3.067 8.949h180.819c4.763 0 6.829-6.027 3.068-8.949z" fill="#fb2b3a"/><path d="m353.842 504.502h-195.682l30-307.245h135.682z" fill="#eaf6ff"/><path d="m353.842 504.502-26.656-273-3.344-34.245h-28.906-106.776l-3.344 34.245h84.881c16.216 0 29.784 12.308 31.36 28.447l14.011 143.493 7.033 101.06z" fill="#d8ecfe"/><path d="m333.501 216.502h-159c-6.075 0-11-4.925-11-11v-15c0-6.075 4.925-11 11-11h159c6.075 0 11 4.925 11 11v15c0 6.075-4.925 11-11 11z" fill="#aa6a51"/><path d="m333.501 179.502h-30c6.075 0 11 4.925 11 11v15c0 6.075-4.925 11-11 11h30c6.075 0 11-4.925 11-11v-15c0-6.075-4.925-11-11-11z" fill="#935b44"/><path d="m358.001 504.502h-204c-6.075 0-11-4.925-11-11v-15c0-6.075 4.925-11 11-11h204c6.075 0 11 4.925 11 11v15c0 6.075-4.925 11-11 11z" fill="#5a5a5a"/><path d="m358.001 467.502h-30c6.075 0 11 4.925 11 11v15c0 6.075-4.925 11-11 11h30c6.075 0 11-4.925 11-11v-15c0-6.075-4.925-11-11-11z" fill="#444"/><path d="m164.712 437.399 174.062-87.216-8.378-85.802-156.444 78.388z" fill="#fd4755"/><path d="m302.838 278.189 8.378 85.802 27.558-13.808-8.378-85.803z" fill="#fb2b3a"/><path d="m277.553 179.502h-43.103v-29.107c0-4.418 3.582-8 8-8h27.103c4.418 0 8 3.582 8 8z" fill="#fbc56d"/><g><g><g><path d="m331.361 38.594c-.392 0-.788-.03-1.188-.094-4.09-.651-6.879-4.495-6.229-8.586l3.753-23.591c.65-4.09 4.49-6.882 8.586-6.229 4.09.651 6.879 4.495 6.229 8.586l-3.753 23.591c-.587 3.692-3.775 6.323-7.398 6.323z" fill="#fed402"/></g><g><path d="m390.65 80.359c-.011 0-.021 0-.032 0l-23.887-.101c-4.143-.018-7.486-3.39-7.469-7.531.018-4.132 3.372-7.469 7.499-7.469h.032l23.887.101c4.143.018 7.486 3.39 7.469 7.531-.017 4.133-3.372 7.469-7.499 7.469z" fill="#fed402"/></g><g><path d="m349.904 59.099c-2.125 0-4.235-.897-5.719-2.644-2.683-3.156-2.298-7.889.858-10.571l20.191-17.159c3.156-2.683 7.891-2.298 10.571.858 2.683 3.156 2.298 7.889-.858 10.571l-20.191 17.159c-1.409 1.2-3.135 1.786-4.852 1.786z" fill="#fed402"/></g></g><g><g><path d="m180.641 38.594c-3.623 0-6.811-2.631-7.398-6.322l-3.753-23.591c-.65-4.091 2.139-7.935 6.229-8.586 4.099-.647 7.935 2.138 8.586 6.229l3.753 23.591c.65 4.091-2.139 7.935-6.229 8.586-.4.063-.797.093-1.188.093z" fill="#fed402"/></g><g><path d="m121.352 80.359c-4.127 0-7.481-3.337-7.499-7.469-.018-4.142 3.326-7.514 7.469-7.531l23.887-.101h.032c4.127 0 7.481 3.337 7.499 7.469.018 4.142-3.326 7.514-7.469 7.531l-23.887.101c-.011 0-.022 0-.032 0z" fill="#fed402"/></g><g><path d="m162.098 59.099c-1.717 0-3.442-.586-4.853-1.785l-20.191-17.159c-3.156-2.683-3.541-7.415-.858-10.571s7.416-3.541 10.571-.858l20.191 17.159c3.156 2.683 3.541 7.415.858 10.571-1.483 1.745-3.593 2.643-5.718 2.643z" fill="#fed402"/></g></g></g><path d="m77.52 504.502c-.703-5.647-1.625-19.834 7.401-32.79 2.626-3.77 9.818-12.779 27.349-18.863 41.042-14.243 62.93 13.861 122.592 12.31 32.926-.856 46.999-9.955 64.181.684 14.712 9.109 20.49 25.746 23.059 38.659z" fill="#eaf6ff"/><path d="m78.997 504.502c1.185-4.062 3.048-8.314 5.924-12.443 2.626-3.77 9.818-12.779 27.349-18.864 41.042-14.243 62.93 13.861 122.592 12.311 32.927-.856 46.999-9.955 64.181.684 7.5 4.644 12.669 11.246 16.284 18.312h6.774c-2.568-12.913-8.346-29.55-23.059-38.659-17.182-10.638-31.254-1.54-64.181-.684-59.663 1.551-81.55-26.554-122.592-12.311-17.531 6.084-24.723 15.094-27.349 18.864-9.025 12.956-8.104 27.143-7.401 32.79z" fill="#d8ecfe"/></g><g><path d="m504.501 512.002h-497c-4.143 0-7.5-3.357-7.5-7.5s3.357-7.5 7.5-7.5h497c4.143 0 7.5 3.357 7.5 7.5s-3.357 7.5-7.5 7.5z" fill="#d8ecfe"/></g></g></svg>
