<svg height="32" viewBox="0 0 60 57" width="32" xmlns="http://www.w3.org/2000/svg"><g id="Page-1" fill="none" fill-rule="evenodd"><g id="042---Freight-Train" fill="rgb(0,0,0)" fill-rule="nonzero"><path id="Shape" d="m59 42h-2v-22c-.0035667-1.3696977-.9343877-2.5630579-2.262-2.9-.4686905-1.7190574-1.4933348-3.2345746-2.914-4.31 0-.066 0-.131 0-.195-.014788-3.90765174-2.7994297-7.25559727-6.639-7.982-1.7067931-2.85993052-4.7914829-4.61192188-8.122-4.613h-.086c-2.9786912.00990491-5.7794432 1.41954019-7.562 3.806-.6846157-.15865909-1.3852426-.23784873-2.088-.236-2.6582224.00990683-5.1748782 1.19936554-6.87 3.247-4.9206995-1.645691-10.2932055.660929-12.489 5.362-2.66813579.4604767-4.86494298 2.3546605-5.713 4.926-1.32303645.3391691-2.24997874 1.5291904-2.255 2.895v12.37c.00257763.615729.19115221 1.2163094.541 1.723l5.538 7.907h-4.079c-1.1045695 0-2 .8954305-2 2v3c0 1.1045695.8954305 2 2 2h3.026c-1.3676345 1.766197-1.3676345 4.233803 0 6h-4.026c-.55228475 0-1 .4477153-1 1s.44771525 1 1 1h58c.5522847 0 1-.4477153 1-1s-.4477153-1-1-1h-4.026c1.3676345-1.766197 1.3676345-4.233803 0-6h3.026c1.1045695 0 2-.8954305 2-2v-4c0-.5522847-.4477153-1-1-1zm-4-5h-4v-3h4zm0-5h-4v-3h4zm0-5h-4v-3h4zm-4 12h4v3h-4zm4-17h-4v-3h3c.5522847 0 1 .4477153 1 1zm-46.261-7.9c.3804526-.0301006.7105999-.2741225.851-.629 1.2239557-3.1189509 4.2294982-5.17326696 7.58-5.181 1.110451-.00875739 2.2107513.21184738 3.232.648.4388556.19033231.951046.0432138 1.222-.351 1.2952977-1.88320166 3.4323478-3.01077776 5.718-3.017.7396324-.00015335 1.4747761.11489208 2.179.341.4327872.14118504.906314-.02775551 1.152-.411 1.4322526-2.26554297 3.962733-3.596773 6.6410554-3.49371303 2.6783225.10305997 5.0990223 1.62480793 6.3529446 3.99371303.1536146.28790736.4380436.48275241.762.522 3.0844733.38802694 5.3966321 3.01321901 5.392 6.122.0079948.1726743.0002966.3457178-.023.517-.0495684.3835324.1264477.7612661.452.97 1.0642666.6868467 1.8862028 1.6903084 2.35 2.869h-48.144c.82703024-1.6449893 2.44852794-2.7428981 4.283-2.9zm-6.551 18.859c-.12013691-.1731256-.18562159-.3782877-.188-.589v-12.37c0-.5522847.44771525-1 1-1h6v3.07c0 .5522847.44771525 1 1 1 .5522847 0 1-.4477153 1-1v-3.07h8v3.07c0 .5522847.4477153 1 1 1s1-.4477153 1-1v-3.07h8v3.07c0 .5522847.4477153 1 1 1s1-.4477153 1-1v-3.07h8v3.07c0 .5522847.4477153 1 1 1s1-.4477153 1-1v-3.07h8v23h-40.479zm3.812 19.041c-.0027654-1.4594373 1.04748812-2.7080809 2.48582199-2.9553873 1.43833386-.2473064 2.84532571.5788398 3.33017801 1.9553873h-2.816c-.55228475 0-1 .4477153-1 1s.44771525 1 1 1h2.816c-.4848523 1.3765475-1.89184415 2.2026937-3.33017801 1.9553873-1.43833387-.2473064-2.48858739-1.49595-2.48582199-2.9553873zm40.1 1c.1542758.7276558.4704292 1.4112306.925 2h-4.051c.4545708-.5887694.7707242-1.2723442.925-2zm-2.2-2c-.1542758-.7276558-.4704292-1.4112306-.925-2h4.052c-.4545708.5887694-.7707242 1.2723442-.925 2zm-2.083 0h-2.817c-.5522847 0-1 .4477153-1 1s.4477153 1 1 1h2.816c-.4870363 1.3775467-1.8956662 2.2038721-3.3357331 1.9567957-1.4400668-.2470764-2.492694-1.4956868-2.492694-2.9567957s1.0526272-2.7097193 2.492694-2.9567957c1.4400669-.2470764 2.8486968.579249 3.3357331 1.9567957zm-6.79 4h-10.053c1.3676345-1.766197 1.3676345-4.233803 0-6h10.052c-1.3676345 1.766197-1.3676345 4.233803 0 6zm-11.027-3c.0027654 1.4594373-1.0474881 2.7080809-2.485822 2.9553873s-2.8453257-.5788398-3.330178-1.9553873h2.816c.5522847 0 1-.4477153 1-1s-.4477153-1-1-1h-2.816c.4848523-1.3765475 1.8918441-2.2026937 3.330178-1.9553873s2.4885874 1.49595 2.485822 2.9553873zm-7.9 1c.1542758.7276558.4704292 1.4112306.925 2h-4.051c.4545708-.5887694.7707242-1.2723442.925-2zm0-2h-2.2c-.1542758-.7276558-.4704292-1.4112306-.925-2h4.052c-.4552847.5885854-.7721277 1.2721735-.927 2zm37.9 1c.0027654 1.4594373-1.0474881 2.7080809-2.485822 2.9553873s-2.8453257-.5788398-3.330178-1.9553873h2.816c.5522847 0 1-.4477153 1-1s-.4477153-1-1-1h-2.816c.4848523-1.3765475 1.8918441-2.2026937 3.330178-1.9553873s2.4885874 1.49595 2.485822 2.9553873zm-52-5v-3h56v3z"/><path id="Shape" d="m17 38.07h-6.4l-4.781-6.829c-.31728759-.4523212-.94117879-.5617876-1.3935-.2445s-.56178759.9411788-.2445 1.3935l5.082 7.255c.1874208.2666767.49305069.4252759.819.425h6.918c.5522847 0 1-.4477153 1-1s-.4477153-1-1-1z"/><path id="Shape" d="m32.663 7.956c.4642706.29809276 1.0822485.16384703 1.381-.3.6675994-1.06752946 1.8552002-1.69644128 3.1133865-1.64874047s2.3947594.76472755 2.9796135 1.87974047c.2615068.48683901.868161.66950683 1.355.408s.6695068-.86816099.408-1.355c-.9198466-1.74161063-2.6985385-2.86060731-4.6667-2.93587752-1.9681615-.07527022-3.8271228.90460833-4.8773 2.57087752-.1425156.22381669-.1902369.49509775-.1326571.75411348.0575799.25901573.21574.48452879.4396571.62688652z"/><path id="Shape" d="m43.944 10.493c1.0696668.1347608 1.8728897 1.0428822 1.876 2.121 0 .5522847.4477153 1 1 1s1-.4477153 1-1c-.0067372-2.0865183-1.563386-3.84278135-3.634-4.1-.3613315-.05733689-.7251315.08722191-.9485659.37692015-.2234344.28969823-.2708328.6782868-.1235858 1.01319919.147247.33491236.465632.56268126.8301517.59388066z"/></g></g></svg>
