<?xml version="1.0"?>
<svg xmlns="http://www.w3.org/2000/svg" width="48" height="48" viewBox="0 0 128 128"><g><path d="M121.693,111.2h-5.766V41.96a1.751,1.751,0,0,0-.736-1.427L65.014,4.88a1.752,1.752,0,0,0-2.028,0L12.809,40.533a1.751,1.751,0,0,0-.736,1.427V111.2H6.307a1.749,1.749,0,0,0-1.75,1.75v8.739a1.749,1.749,0,0,0,1.75,1.75H121.693a1.749,1.749,0,0,0,1.75-1.75v-8.739A1.749,1.749,0,0,0,121.693,111.2ZM15.573,42.863,64,8.454l48.427,34.409V111.2h-7.381V52.916a1.749,1.749,0,0,0-1.75-1.75H24.7a1.749,1.749,0,0,0-1.75,1.75V111.2H15.573ZM88.426,111.2V90.277a1.75,1.75,0,0,0-1.75-1.75H77.088V67.6a1.75,1.75,0,0,0-1.75-1.75H52.662a1.75,1.75,0,0,0-1.75,1.75V88.527H41.324a1.75,1.75,0,0,0-1.75,1.75V111.2H26.454V54.666h75.092V111.2Zm-45.352,0V98.983H62.25V111.2ZM84.926,95.483H65.75V92.027H84.926ZM73.588,72.807H54.412V69.351H73.588Zm-19.176,3.5H73.588v12.22H54.412Zm7.838,15.72v3.456H43.074V92.027Zm3.5,6.956H84.926V111.2H65.75Zm54.193,20.96H8.057V114.7H119.943Z"/><path d="M57.183,47.148H70.817a1.75,1.75,0,0,0,1.75-1.75V38.521a1.751,1.751,0,0,0-1.75-1.75H57.183a1.751,1.751,0,0,0-1.75,1.75V45.4A1.75,1.75,0,0,0,57.183,47.148Zm1.75-6.877H69.067v3.377H58.933Z"/><path d="M78.068,47.148H91.7a1.75,1.75,0,0,0,1.75-1.75V38.521a1.751,1.751,0,0,0-1.75-1.75H78.068a1.751,1.751,0,0,0-1.75,1.75V45.4A1.75,1.75,0,0,0,78.068,47.148Zm1.75-6.877H89.951v3.377H79.818Z"/><path d="M36.3,47.148H49.932a1.75,1.75,0,0,0,1.75-1.75V38.521a1.751,1.751,0,0,0-1.75-1.75H36.3a1.751,1.751,0,0,0-1.75,1.75V45.4A1.75,1.75,0,0,0,36.3,47.148Zm1.75-6.877H48.182v3.377H38.049Z"/></g></svg>
